<?xml version="1.0" encoding="utf-8" standalone="no"?>
<!DOCTYPE svg PUBLIC "-//W3C//DTD SVG 1.1//EN"
  "http://www.w3.org/Graphics/SVG/1.1/DTD/svg11.dtd">
<!-- Created with matplotlib (https://matplotlib.org/) -->
<svg height="345.6pt" version="1.1" viewBox="0 0 460.8 345.6" width="460.8pt" xmlns="http://www.w3.org/2000/svg" xmlns:xlink="http://www.w3.org/1999/xlink">
 <metadata>
  <rdf:RDF xmlns:cc="http://creativecommons.org/ns#" xmlns:dc="http://purl.org/dc/elements/1.1/" xmlns:rdf="http://www.w3.org/1999/02/22-rdf-syntax-ns#">
   <cc:Work>
    <dc:type rdf:resource="http://purl.org/dc/dcmitype/StillImage"/>
    <dc:date>2022-01-18T23:23:06.989538</dc:date>
    <dc:format>image/svg+xml</dc:format>
    <dc:creator>
     <cc:Agent>
      <dc:title>Matplotlib v3.3.4, https://matplotlib.org/</dc:title>
     </cc:Agent>
    </dc:creator>
   </cc:Work>
  </rdf:RDF>
 </metadata>
 <defs>
  <style type="text/css">*{stroke-linecap:butt;stroke-linejoin:round;}</style>
 </defs>
 <g id="figure_1">
  <g id="patch_1">
   <path d="M 0 345.6 
L 460.8 345.6 
L 460.8 0 
L 0 0 
z
" style="fill:#ffffff;"/>
  </g>
  <g id="axes_1">
   <g id="patch_2">
    <path d="M 57.6 307.584 
L 414.72 307.584 
L 414.72 41.472 
L 57.6 41.472 
z
" style="fill:#ffffff;"/>
   </g>
   <g id="Quiver_1">
    <path clip-path="url(#p306aa08628)" d="M 74.590293 294.730434 
L 81.801198 301.941339 
L 82.558764 299.668642 
L 87.861726 309.516999 
L 78.013369 304.214037 
L 80.286067 303.456471 
L 73.075161 296.245566 
L 74.590293 294.730434 
"/>
    <path clip-path="url(#p306aa08628)" d="M 110.563206 294.64232 
L 118.61283 300.903139 
L 119.082653 298.554026 
L 125.566203 307.668582 
L 115.136144 303.628109 
L 117.297328 302.594499 
L 109.247703 296.33368 
L 110.563206 294.64232 
"/>
    <path clip-path="url(#p306aa08628)" d="M 146.49848 294.551463 
L 155.412926 299.503933 
L 155.516986 297.11056 
L 163.321462 305.123156 
L 152.395196 302.729783 
L 154.37233 301.377007 
L 145.457883 296.424537 
L 146.49848 294.551463 
"/>
    <path clip-path="url(#p306aa08628)" d="M 182.389703 294.471619 
L 192.064147 297.696434 
L 191.725354 295.324877 
L 200.872786 301.761959 
L 189.692591 301.423165 
L 191.38656 299.729196 
L 181.712115 296.504381 
L 182.389703 294.471619 
"/>
    <path clip-path="url(#p306aa08628)" d="M 218.241948 294.423193 
L 228.377336 295.549347 
L 227.549153 293.30142 
L 237.84229 297.678961 
L 226.839281 299.690264 
L 228.140712 297.678961 
L 218.005324 296.552807 
L 218.241948 294.423193 
"/>
    <path clip-path="url(#p306aa08628)" d="M 254.078052 294.423193 
L 264.21344 293.297039 
L 262.912008 291.285736 
L 273.915017 293.297039 
L 263.62188 297.67458 
L 264.450063 295.426653 
L 254.314676 296.552807 
L 254.078052 294.423193 
"/>
    <path clip-path="url(#p306aa08628)" d="M 289.930297 294.471619 
L 299.604742 291.246804 
L 297.910773 289.552835 
L 309.090968 289.214041 
L 299.943535 295.651123 
L 300.282329 293.279566 
L 290.607885 296.504381 
L 289.930297 294.471619 
"/>
    <path clip-path="url(#p306aa08628)" d="M 325.82152 294.551463 
L 334.735966 289.598993 
L 332.758832 288.246217 
L 343.685099 285.852844 
L 335.880622 293.86544 
L 335.776563 291.472067 
L 326.862117 296.424537 
L 325.82152 294.551463 
"/>
    <path clip-path="url(#p306aa08628)" d="M 361.756794 294.64232 
L 369.806419 288.381501 
L 367.645235 287.347891 
L 378.075293 283.307418 
L 371.591744 292.421974 
L 371.121921 290.072861 
L 363.072297 296.33368 
L 361.756794 294.64232 
"/>
    <path clip-path="url(#p306aa08628)" d="M 397.729707 294.730434 
L 404.940612 287.519529 
L 402.667914 286.761963 
L 412.516271 281.459001 
L 407.21331 291.307358 
L 406.455744 289.034661 
L 399.244839 296.245566 
L 397.729707 294.730434 
"/>
    <path clip-path="url(#p306aa08628)" d="M 74.678408 267.950249 
L 80.939227 275.999873 
L 81.972836 273.83869 
L 86.013309 284.268748 
L 76.898754 277.785198 
L 79.247866 277.315376 
L 72.987047 269.265751 
L 74.678408 267.950249 
"/>
    <path clip-path="url(#p306aa08628)" d="M 110.66302 267.850434 
L 117.873926 275.061339 
L 118.631492 272.788642 
L 123.934453 282.636999 
L 114.086096 277.334037 
L 116.358794 276.576471 
L 109.147889 269.365566 
L 110.66302 267.850434 
"/>
    <path clip-path="url(#p306aa08628)" d="M 146.600897 267.736199 
L 154.899156 273.663526 
L 155.272785 271.297208 
L 162.122654 280.139766 
L 151.536493 276.528017 
L 153.653725 275.407129 
L 145.355466 269.479801 
L 146.600897 267.736199 
"/>
    <path clip-path="url(#p306aa08628)" d="M 182.472938 267.623265 
L 191.846159 271.640359 
L 191.705482 269.248859 
L 200.286746 276.423359 
L 189.173306 275.157271 
L 191.0021 273.60983 
L 181.62888 269.592735 
L 182.472938 267.623265 
"/>
    <path clip-path="url(#p306aa08628)" d="M 218.27515 267.547408 
L 228.370417 268.989589 
L 227.612851 266.716891 
L 237.764234 271.4138 
L 226.703772 273.080445 
L 228.067391 271.110773 
L 217.972123 269.668592 
L 218.27515 267.547408 
"/>
    <path clip-path="url(#p306aa08628)" d="M 254.04485 267.547408 
L 264.140118 266.105227 
L 262.776499 264.135555 
L 273.836962 265.8022 
L 263.685578 270.499109 
L 264.443144 268.226411 
L 254.347877 269.668592 
L 254.04485 267.547408 
"/>
    <path clip-path="url(#p306aa08628)" d="M 289.847062 267.623265 
L 299.220282 263.60617 
L 297.391488 262.058729 
L 308.504928 260.792641 
L 299.923664 267.967141 
L 300.064341 265.575641 
L 290.69112 269.592735 
L 289.847062 267.623265 
"/>
    <path clip-path="url(#p306aa08628)" d="M 325.719103 267.736199 
L 334.017361 261.808871 
L 331.900129 260.687983 
L 342.48629 257.076234 
L 335.636421 265.918792 
L 335.262792 263.552474 
L 326.964534 269.479801 
L 325.719103 267.736199 
"/>
    <path clip-path="url(#p306aa08628)" d="M 361.65698 267.850434 
L 368.867885 260.639529 
L 366.595187 259.881963 
L 376.443544 254.579001 
L 371.140583 264.427358 
L 370.383017 262.154661 
L 363.172111 269.365566 
L 361.65698 267.850434 
"/>
    <path clip-path="url(#p306aa08628)" d="M 397.641592 267.950249 
L 403.902411 259.900624 
L 401.553299 259.430802 
L 410.667854 252.947252 
L 406.627382 263.37731 
L 405.593772 261.216127 
L 399.332953 269.265751 
L 397.641592 267.950249 
"/>
    <path clip-path="url(#p306aa08628)" d="M 74.769264 241.207702 
L 79.721734 250.122148 
L 81.07451 248.145014 
L 83.467883 259.07128 
L 75.455288 251.266804 
L 77.84866 251.162745 
L 72.89619 242.248298 
L 74.769264 241.207702 
"/>
    <path clip-path="url(#p306aa08628)" d="M 110.777256 241.105285 
L 116.704584 249.403543 
L 117.825471 247.286311 
L 121.43722 257.872472 
L 112.594662 251.022603 
L 114.960981 250.648974 
L 109.033653 242.350715 
L 110.777256 241.105285 
"/>
    <path clip-path="url(#p306aa08628)" d="M 146.735748 240.970434 
L 153.946653 248.181339 
L 154.704219 245.908642 
L 160.00718 255.756999 
L 150.158823 250.454037 
L 152.431521 249.696471 
L 145.220616 242.485566 
L 146.735748 240.970434 
"/>
    <path clip-path="url(#p306aa08628)" d="M 182.602119 240.809316 
L 191.346626 246.056021 
L 191.530363 243.667443 
L 199.063569 251.935596 
L 188.223102 249.179545 
L 190.244206 247.893388 
L 181.499699 242.646684 
L 182.602119 240.809316 
"/>
    <path clip-path="url(#p306aa08628)" d="M 218.333747 240.677445 
L 228.333474 242.67739 
L 227.703141 240.36617 
L 237.578357 245.618944 
L 226.442475 246.669499 
L 227.913252 244.7785 
L 217.913525 242.778555 
L 218.333747 240.677445 
"/>
    <path clip-path="url(#p306aa08628)" d="M 253.986253 240.677445 
L 263.985979 238.6775 
L 262.515202 236.786501 
L 273.651084 237.837056 
L 263.775868 243.08983 
L 264.406201 240.77861 
L 254.406475 242.778555 
L 253.986253 240.677445 
"/>
    <path clip-path="url(#p306aa08628)" d="M 289.717881 240.809316 
L 298.462388 235.562612 
L 296.441284 234.276455 
L 307.281751 231.520404 
L 299.748545 239.788557 
L 299.564808 237.399979 
L 290.820301 242.646684 
L 289.717881 240.809316 
"/>
    <path clip-path="url(#p306aa08628)" d="M 325.584252 240.970434 
L 332.795158 233.759529 
L 330.52246 233.001963 
L 340.370817 227.699001 
L 335.067855 237.547358 
L 334.310289 235.274661 
L 327.099384 242.485566 
L 325.584252 240.970434 
"/>
    <path clip-path="url(#p306aa08628)" d="M 361.542744 241.105285 
L 367.470072 232.807026 
L 365.103753 232.433397 
L 373.946311 225.583528 
L 370.334562 236.169689 
L 369.213675 234.052457 
L 363.286347 242.350715 
L 361.542744 241.105285 
"/>
    <path clip-path="url(#p306aa08628)" d="M 397.550736 241.207702 
L 402.503206 232.293255 
L 400.109833 232.189196 
L 408.122428 224.38472 
L 405.729056 235.310986 
L 404.37628 233.333852 
L 399.42381 242.248298 
L 397.550736 241.207702 
"/>
    <path clip-path="url(#p306aa08628)" d="M 74.849109 214.509206 
L 78.073923 224.183651 
L 79.767892 222.489682 
L 80.106686 233.669877 
L 73.669604 224.522445 
L 76.041161 224.861238 
L 72.816346 215.186794 
L 74.849109 214.509206 
"/>
    <path clip-path="url(#p306aa08628)" d="M 110.89019 214.425971 
L 114.907284 223.799191 
L 116.454725 221.970397 
L 117.720813 233.083837 
L 110.546314 224.502573 
L 112.937814 224.64325 
L 108.920719 215.270029 
L 110.89019 214.425971 
"/>
    <path clip-path="url(#p306aa08628)" d="M 146.896865 214.29679 
L 152.14357 223.041297 
L 153.429727 221.020193 
L 156.185778 231.86066 
L 147.917625 224.327454 
L 150.306202 224.143717 
L 145.059498 215.39921 
L 146.896865 214.29679 
"/>
    <path clip-path="url(#p306aa08628)" d="M 182.808475 214.090434 
L 190.01938 221.301339 
L 190.776946 219.028642 
L 196.079908 228.876999 
L 186.231551 223.574037 
L 188.504248 222.816471 
L 181.293343 215.605566 
L 182.808475 214.090434 
"/>
    <path clip-path="url(#p306aa08628)" d="M 218.46243 213.831619 
L 228.136875 217.056434 
L 227.798081 214.684877 
L 236.945513 221.121959 
L 225.765318 220.783165 
L 227.459287 219.089196 
L 217.784843 215.864381 
L 218.46243 213.831619 
"/>
    <path clip-path="url(#p306aa08628)" d="M 253.85757 213.831619 
L 263.532014 210.606804 
L 261.838046 208.912835 
L 273.01824 208.574041 
L 263.870808 215.011123 
L 264.209602 212.639566 
L 254.535157 215.864381 
L 253.85757 213.831619 
"/>
    <path clip-path="url(#p306aa08628)" d="M 289.511525 214.090434 
L 296.72243 206.879529 
L 294.449732 206.121963 
L 304.298089 200.819001 
L 298.995128 210.667358 
L 298.237562 208.394661 
L 291.026657 215.605566 
L 289.511525 214.090434 
"/>
    <path clip-path="url(#p306aa08628)" d="M 325.423135 214.29679 
L 330.669839 205.552283 
L 328.281261 205.368546 
L 336.549414 197.83534 
L 333.793363 208.675807 
L 332.507206 206.654703 
L 327.260502 215.39921 
L 325.423135 214.29679 
"/>
    <path clip-path="url(#p306aa08628)" d="M 361.42981 214.425971 
L 365.446905 205.05275 
L 363.055405 205.193427 
L 370.229904 196.612163 
L 368.963816 207.725603 
L 367.416375 205.896809 
L 363.399281 215.270029 
L 361.42981 214.425971 
"/>
    <path clip-path="url(#p306aa08628)" d="M 397.470891 214.509206 
L 400.695706 204.834762 
L 398.32415 205.173555 
L 404.761232 196.026123 
L 404.422438 207.206318 
L 402.728469 205.512349 
L 399.503654 215.186794 
L 397.470891 214.509206 
"/>
    <path clip-path="url(#p306aa08628)" d="M 74.897535 187.849688 
L 76.023689 197.985076 
L 78.034991 196.683645 
L 76.023689 207.686653 
L 71.646148 197.393516 
L 73.894074 198.2217 
L 72.76792 188.086312 
L 74.897535 187.849688 
"/>
    <path clip-path="url(#p306aa08628)" d="M 110.966047 187.816487 
L 112.408228 197.911754 
L 114.377899 196.548136 
L 112.711254 207.608598 
L 108.014346 197.457215 
L 110.287043 198.214781 
L 108.844862 188.119513 
L 110.966047 187.816487 
"/>
    <path clip-path="url(#p306aa08628)" d="M 147.028737 187.757889 
L 149.028682 197.757615 
L 150.919681 196.286839 
L 149.869126 207.422721 
L 144.616351 197.547504 
L 146.927572 198.177837 
L 144.927627 188.178111 
L 147.028737 187.757889 
"/>
    <path clip-path="url(#p306aa08628)" d="M 183.06729 187.629206 
L 186.292105 197.303651 
L 187.986074 195.609682 
L 188.324868 206.789877 
L 181.887786 197.642445 
L 184.259343 197.981238 
L 181.034528 188.306794 
L 183.06729 187.629206 
"/>
    <path clip-path="url(#p306aa08628)" d="M 218.881202 187.210434 
L 226.092108 194.421339 
L 226.849673 192.148642 
L 232.152635 201.996999 
L 222.304278 196.694037 
L 224.576976 195.936471 
L 217.36607 188.725566 
L 218.881202 187.210434 
"/>
    <path clip-path="url(#p306aa08628)" d="M 253.438798 187.210434 
L 260.649703 179.999529 
L 258.377005 179.241963 
L 268.225362 173.939001 
L 262.922401 183.787358 
L 262.164835 181.514661 
L 254.95393 188.725566 
L 253.438798 187.210434 
"/>
    <path clip-path="url(#p306aa08628)" d="M 289.25271 187.629206 
L 292.477524 177.954762 
L 290.105968 178.293555 
L 296.54305 169.146123 
L 296.204256 180.326318 
L 294.510287 178.632349 
L 291.285472 188.306794 
L 289.25271 187.629206 
"/>
    <path clip-path="url(#p306aa08628)" d="M 325.291263 187.757889 
L 327.291209 177.758163 
L 324.979988 178.388496 
L 330.232762 168.513279 
L 331.283317 179.649161 
L 329.392318 178.178385 
L 327.392373 188.178111 
L 325.291263 187.757889 
"/>
    <path clip-path="url(#p306aa08628)" d="M 361.353953 187.816487 
L 362.796134 177.721219 
L 360.523436 178.478785 
L 365.220345 168.327402 
L 366.88699 179.387864 
L 364.917319 178.024246 
L 363.475138 188.119513 
L 361.353953 187.816487 
"/>
    <path clip-path="url(#p306aa08628)" d="M 397.422465 187.849688 
L 398.54862 177.7143 
L 396.300693 178.542484 
L 400.678234 168.249347 
L 402.689537 179.252355 
L 400.678234 177.950924 
L 399.55208 188.086312 
L 397.422465 187.849688 
"/>
    <path clip-path="url(#p306aa08628)" d="M 74.897535 161.206312 
L 73.77138 171.3417 
L 76.019307 170.513516 
L 71.641766 180.806653 
L 69.630463 169.803645 
L 71.641766 171.105076 
L 72.76792 160.969688 
L 74.897535 161.206312 
"/>
    <path clip-path="url(#p306aa08628)" d="M 110.966047 161.239513 
L 109.523866 171.334781 
L 111.796564 170.577215 
L 107.099655 180.728598 
L 105.43301 169.668136 
L 107.402681 171.031754 
L 108.844862 160.936487 
L 110.966047 161.239513 
"/>
    <path clip-path="url(#p306aa08628)" d="M 147.028737 161.298111 
L 145.028791 171.297837 
L 147.340012 170.667504 
L 142.087238 180.542721 
L 141.036683 169.406839 
L 142.927682 170.877615 
L 144.927627 160.877889 
L 147.028737 161.298111 
"/>
    <path clip-path="url(#p306aa08628)" d="M 183.06729 161.426794 
L 179.842476 171.101238 
L 182.214032 170.762445 
L 175.77695 179.909877 
L 176.115744 168.729682 
L 177.809713 170.423651 
L 181.034528 160.749206 
L 183.06729 161.426794 
"/>
    <path clip-path="url(#p306aa08628)" d="M 218.881202 161.845566 
L 211.670297 169.056471 
L 213.942995 169.814037 
L 204.094638 175.116999 
L 209.397599 165.268642 
L 210.155165 167.541339 
L 217.36607 160.330434 
L 218.881202 161.845566 
"/>
    <path clip-path="url(#p306aa08628)" d="M 253.438798 161.845566 
L 246.227892 154.634661 
L 245.470327 156.907358 
L 240.167365 147.059001 
L 250.015722 152.361963 
L 247.743024 153.119529 
L 254.95393 160.330434 
L 253.438798 161.845566 
"/>
    <path clip-path="url(#p306aa08628)" d="M 289.25271 161.426794 
L 286.027895 151.752349 
L 284.333926 153.446318 
L 283.995132 142.266123 
L 290.432214 151.413555 
L 288.060657 151.074762 
L 291.285472 160.749206 
L 289.25271 161.426794 
"/>
    <path clip-path="url(#p306aa08628)" d="M 325.291263 161.298111 
L 323.291318 151.298385 
L 321.400319 152.769161 
L 322.450874 141.633279 
L 327.703649 151.508496 
L 325.392428 150.878163 
L 327.392373 160.877889 
L 325.291263 161.298111 
"/>
    <path clip-path="url(#p306aa08628)" d="M 361.353953 161.239513 
L 359.911772 151.144246 
L 357.942101 152.507864 
L 359.608746 141.447402 
L 364.305654 151.598785 
L 362.032957 150.841219 
L 363.475138 160.936487 
L 361.353953 161.239513 
"/>
    <path clip-path="url(#p306aa08628)" d="M 397.422465 161.206312 
L 396.296311 151.070924 
L 394.285009 152.372355 
L 396.296311 141.369347 
L 400.673852 151.662484 
L 398.425926 150.8343 
L 399.55208 160.969688 
L 397.422465 161.206312 
"/>
    <path clip-path="url(#p306aa08628)" d="M 74.849109 134.546794 
L 71.624294 144.221238 
L 73.99585 143.882445 
L 67.558768 153.029877 
L 67.897562 141.849682 
L 69.591531 143.543651 
L 72.816346 133.869206 
L 74.849109 134.546794 
"/>
    <path clip-path="url(#p306aa08628)" d="M 110.89019 134.630029 
L 106.873095 144.00325 
L 109.264595 143.862573 
L 102.090096 152.443837 
L 103.356184 141.330397 
L 104.903625 143.159191 
L 108.920719 133.785971 
L 110.89019 134.630029 
"/>
    <path clip-path="url(#p306aa08628)" d="M 146.896865 134.75921 
L 141.650161 143.503717 
L 144.038739 143.687454 
L 135.770586 151.22066 
L 138.526637 140.380193 
L 139.812794 142.401297 
L 145.059498 133.65679 
L 146.896865 134.75921 
"/>
    <path clip-path="url(#p306aa08628)" d="M 182.808475 134.965566 
L 175.59757 142.176471 
L 177.870268 142.934037 
L 168.021911 148.236999 
L 173.324872 138.388642 
L 174.082438 140.661339 
L 181.293343 133.450434 
L 182.808475 134.965566 
"/>
    <path clip-path="url(#p306aa08628)" d="M 218.46243 135.224381 
L 208.787986 138.449196 
L 210.481954 140.143165 
L 199.30176 140.481959 
L 208.449192 134.044877 
L 208.110398 136.416434 
L 217.784843 133.191619 
L 218.46243 135.224381 
"/>
    <path clip-path="url(#p306aa08628)" d="M 253.85757 135.224381 
L 244.183125 131.999566 
L 244.521919 134.371123 
L 235.374487 127.934041 
L 246.554682 128.272835 
L 244.860713 129.966804 
L 254.535157 133.191619 
L 253.85757 135.224381 
"/>
    <path clip-path="url(#p306aa08628)" d="M 289.511525 134.965566 
L 282.30062 127.754661 
L 281.543054 130.027358 
L 276.240092 120.179001 
L 286.088449 125.481963 
L 283.815752 126.239529 
L 291.026657 133.450434 
L 289.511525 134.965566 
"/>
    <path clip-path="url(#p306aa08628)" d="M 325.423135 134.75921 
L 320.17643 126.014703 
L 318.890273 128.035807 
L 316.134222 117.19534 
L 324.402375 124.728546 
L 322.013798 124.912283 
L 327.260502 133.65679 
L 325.423135 134.75921 
"/>
    <path clip-path="url(#p306aa08628)" d="M 361.42981 134.630029 
L 357.412716 125.256809 
L 355.865275 127.085603 
L 354.599187 115.972163 
L 361.773686 124.553427 
L 359.382186 124.41275 
L 363.399281 133.785971 
L 361.42981 134.630029 
"/>
    <path clip-path="url(#p306aa08628)" d="M 397.470891 134.546794 
L 394.246077 124.872349 
L 392.552108 126.566318 
L 392.213314 115.386123 
L 398.650396 124.533555 
L 396.278839 124.194762 
L 399.503654 133.869206 
L 397.470891 134.546794 
"/>
    <path clip-path="url(#p306aa08628)" d="M 74.769264 107.848298 
L 69.816794 116.762745 
L 72.210167 116.866804 
L 64.197572 124.67128 
L 66.590944 113.745014 
L 67.94372 115.722148 
L 72.89619 106.807702 
L 74.769264 107.848298 
"/>
    <path clip-path="url(#p306aa08628)" d="M 110.777256 107.950715 
L 104.849928 116.248974 
L 107.216247 116.622603 
L 98.373689 123.472472 
L 101.985438 112.886311 
L 103.106325 115.003543 
L 109.033653 106.705285 
L 110.777256 107.950715 
"/>
    <path clip-path="url(#p306aa08628)" d="M 146.735748 108.085566 
L 139.524842 115.296471 
L 141.79754 116.054037 
L 131.949183 121.356999 
L 137.252145 111.508642 
L 138.009711 113.781339 
L 145.220616 106.570434 
L 146.735748 108.085566 
"/>
    <path clip-path="url(#p306aa08628)" d="M 182.602119 108.246684 
L 173.857612 113.493388 
L 175.878716 114.779545 
L 165.038249 117.535596 
L 172.571455 109.267443 
L 172.755192 111.656021 
L 181.499699 106.409316 
L 182.602119 108.246684 
"/>
    <path clip-path="url(#p306aa08628)" d="M 218.333747 108.378555 
L 208.334021 110.3785 
L 209.804798 112.269499 
L 198.668916 111.218944 
L 208.544132 105.96617 
L 207.913799 108.27739 
L 217.913525 106.277445 
L 218.333747 108.378555 
"/>
    <path clip-path="url(#p306aa08628)" d="M 253.986253 108.378555 
L 243.986526 106.37861 
L 244.616859 108.68983 
L 234.741643 103.437056 
L 245.877525 102.386501 
L 244.406748 104.2775 
L 254.406475 106.277445 
L 253.986253 108.378555 
"/>
    <path clip-path="url(#p306aa08628)" d="M 289.717881 108.246684 
L 280.973374 102.999979 
L 280.789637 105.388557 
L 273.256431 97.120404 
L 284.096898 99.876455 
L 282.075794 101.162612 
L 290.820301 106.409316 
L 289.717881 108.246684 
"/>
    <path clip-path="url(#p306aa08628)" d="M 325.584252 108.085566 
L 318.373347 100.874661 
L 317.615781 103.147358 
L 312.31282 93.299001 
L 322.161177 98.601963 
L 319.888479 99.359529 
L 327.099384 106.570434 
L 325.584252 108.085566 
"/>
    <path clip-path="url(#p306aa08628)" d="M 361.542744 107.950715 
L 355.615416 99.652457 
L 354.494529 101.769689 
L 350.88278 91.183528 
L 359.725338 98.033397 
L 357.359019 98.407026 
L 363.286347 106.705285 
L 361.542744 107.950715 
"/>
    <path clip-path="url(#p306aa08628)" d="M 397.550736 107.848298 
L 392.598266 98.933852 
L 391.24549 100.910986 
L 388.852117 89.98472 
L 396.864712 97.789196 
L 394.47134 97.893255 
L 399.42381 106.807702 
L 397.550736 107.848298 
"/>
    <path clip-path="url(#p306aa08628)" d="M 74.678408 81.105751 
L 68.417589 89.155376 
L 70.766701 89.625198 
L 61.652146 96.108748 
L 65.692618 85.67869 
L 66.726228 87.839873 
L 72.987047 79.790249 
L 74.678408 81.105751 
"/>
    <path clip-path="url(#p306aa08628)" d="M 110.66302 81.205566 
L 103.452115 88.416471 
L 105.724813 89.174037 
L 95.876456 94.476999 
L 101.179417 84.628642 
L 101.936983 86.901339 
L 109.147889 79.690434 
L 110.66302 81.205566 
"/>
    <path clip-path="url(#p306aa08628)" d="M 146.600897 81.319801 
L 138.302639 87.247129 
L 140.419871 88.368017 
L 129.83371 91.979766 
L 136.683579 83.137208 
L 137.057208 85.503526 
L 145.355466 79.576199 
L 146.600897 81.319801 
"/>
    <path clip-path="url(#p306aa08628)" d="M 182.472938 81.432735 
L 173.099718 85.44983 
L 174.928512 86.997271 
L 163.815072 88.263359 
L 172.396336 81.088859 
L 172.255659 83.480359 
L 181.62888 79.463265 
L 182.472938 81.432735 
"/>
    <path clip-path="url(#p306aa08628)" d="M 218.27515 81.508592 
L 208.179882 82.950773 
L 209.543501 84.920445 
L 198.483038 83.2538 
L 208.634422 78.556891 
L 207.876856 80.829589 
L 217.972123 79.387408 
L 218.27515 81.508592 
"/>
    <path clip-path="url(#p306aa08628)" d="M 254.04485 81.508592 
L 243.949583 80.066411 
L 244.707149 82.339109 
L 234.555766 77.6422 
L 245.616228 75.975555 
L 244.252609 77.945227 
L 254.347877 79.387408 
L 254.04485 81.508592 
"/>
    <path clip-path="url(#p306aa08628)" d="M 289.847062 81.432735 
L 280.473841 77.415641 
L 280.614518 79.807141 
L 272.033254 72.632641 
L 283.146694 73.898729 
L 281.3179 75.44617 
L 290.69112 79.463265 
L 289.847062 81.432735 
"/>
    <path clip-path="url(#p306aa08628)" d="M 325.719103 81.319801 
L 317.420844 75.392474 
L 317.047215 77.758792 
L 310.197346 68.916234 
L 320.783507 72.527983 
L 318.666275 73.648871 
L 326.964534 79.576199 
L 325.719103 81.319801 
"/>
    <path clip-path="url(#p306aa08628)" d="M 361.65698 81.205566 
L 354.446074 73.994661 
L 353.688508 76.267358 
L 348.385547 66.419001 
L 358.233904 71.721963 
L 355.961206 72.479529 
L 363.172111 79.690434 
L 361.65698 81.205566 
"/>
    <path clip-path="url(#p306aa08628)" d="M 397.641592 81.105751 
L 391.380773 73.056127 
L 390.347164 75.21731 
L 386.306691 64.787252 
L 395.421246 71.270802 
L 393.072134 71.740624 
L 399.332953 79.790249 
L 397.641592 81.105751 
"/>
    <path clip-path="url(#p306aa08628)" d="M 74.590293 54.325566 
L 67.379388 61.536471 
L 69.652086 62.294037 
L 59.803729 67.596999 
L 65.10669 57.748642 
L 65.864256 60.021339 
L 73.075161 52.810434 
L 74.590293 54.325566 
"/>
    <path clip-path="url(#p306aa08628)" d="M 110.563206 54.41368 
L 102.513581 60.674499 
L 104.674765 61.708109 
L 94.244707 65.748582 
L 100.728256 56.634026 
L 101.198079 58.983139 
L 109.247703 52.72232 
L 110.563206 54.41368 
"/>
    <path clip-path="url(#p306aa08628)" d="M 146.49848 54.504537 
L 137.584034 59.457007 
L 139.561168 60.809783 
L 128.634901 63.203156 
L 136.439378 55.19056 
L 136.543437 57.583933 
L 145.457883 52.631463 
L 146.49848 54.504537 
"/>
    <path clip-path="url(#p306aa08628)" d="M 182.389703 54.584381 
L 172.715258 57.809196 
L 174.409227 59.503165 
L 163.229032 59.841959 
L 172.376465 53.404877 
L 172.037671 55.776434 
L 181.712115 52.551619 
L 182.389703 54.584381 
"/>
    <path clip-path="url(#p306aa08628)" d="M 218.241948 54.632807 
L 208.10656 55.758961 
L 209.407992 57.770264 
L 198.404983 55.758961 
L 208.69812 51.38142 
L 207.869937 53.629347 
L 218.005324 52.503193 
L 218.241948 54.632807 
"/>
    <path clip-path="url(#p306aa08628)" d="M 254.078052 54.632807 
L 243.942664 53.506653 
L 244.770847 55.75458 
L 234.47771 51.377039 
L 245.480719 49.365736 
L 244.179288 51.377039 
L 254.314676 52.503193 
L 254.078052 54.632807 
"/>
    <path clip-path="url(#p306aa08628)" d="M 289.930297 54.584381 
L 280.255853 51.359566 
L 280.594646 53.731123 
L 271.447214 47.294041 
L 282.627409 47.632835 
L 280.93344 49.326804 
L 290.607885 52.551619 
L 289.930297 54.584381 
"/>
    <path clip-path="url(#p306aa08628)" d="M 325.82152 54.504537 
L 316.907074 49.552067 
L 316.803014 51.94544 
L 308.998538 43.932844 
L 319.924804 46.326217 
L 317.94767 47.678993 
L 326.862117 52.631463 
L 325.82152 54.504537 
"/>
    <path clip-path="url(#p306aa08628)" d="M 361.756794 54.41368 
L 353.70717 48.152861 
L 353.237347 50.501974 
L 346.753797 41.387418 
L 357.183856 45.427891 
L 355.022672 46.461501 
L 363.072297 52.72232 
L 361.756794 54.41368 
"/>
    <path clip-path="url(#p306aa08628)" d="M 397.729707 54.325566 
L 390.518802 47.114661 
L 389.761236 49.387358 
L 384.458274 39.539001 
L 394.306631 44.841963 
L 392.033933 45.599529 
L 399.244839 52.810434 
L 397.729707 54.325566 
"/>
   </g>
   <g id="matplotlib.axis_1">
    <g id="xtick_1">
     <g id="line2d_1">
      <defs>
       <path d="M 0 0 
L 0 3.5 
" id="m475966b317" style="stroke:#000000;stroke-width:0.8;"/>
      </defs>
      <g>
       <use style="stroke:#000000;stroke-width:0.8;" x="106.298182" xlink:href="#m475966b317" y="307.584"/>
      </g>
     </g>
     <g id="text_1">
      <!-- −4 -->
      <g transform="translate(98.927088 322.182437)scale(0.1 -0.1)">
       <defs>
        <path d="M 10.59375 35.5 
L 73.1875 35.5 
L 73.1875 27.203125 
L 10.59375 27.203125 
z
" id="DejaVuSans-8722"/>
        <path d="M 37.796875 64.3125 
L 12.890625 25.390625 
L 37.796875 25.390625 
z
M 35.203125 72.90625 
L 47.609375 72.90625 
L 47.609375 25.390625 
L 58.015625 25.390625 
L 58.015625 17.1875 
L 47.609375 17.1875 
L 47.609375 0 
L 37.796875 0 
L 37.796875 17.1875 
L 4.890625 17.1875 
L 4.890625 26.703125 
z
" id="DejaVuSans-52"/>
       </defs>
       <use xlink:href="#DejaVuSans-8722"/>
       <use x="83.789062" xlink:href="#DejaVuSans-52"/>
      </g>
     </g>
    </g>
    <g id="xtick_2">
     <g id="line2d_2">
      <g>
       <use style="stroke:#000000;stroke-width:0.8;" x="171.229091" xlink:href="#m475966b317" y="307.584"/>
      </g>
     </g>
     <g id="text_2">
      <!-- −2 -->
      <g transform="translate(163.857997 322.182437)scale(0.1 -0.1)">
       <defs>
        <path d="M 19.1875 8.296875 
L 53.609375 8.296875 
L 53.609375 0 
L 7.328125 0 
L 7.328125 8.296875 
Q 12.9375 14.109375 22.625 23.890625 
Q 32.328125 33.6875 34.8125 36.53125 
Q 39.546875 41.84375 41.421875 45.53125 
Q 43.3125 49.21875 43.3125 52.78125 
Q 43.3125 58.59375 39.234375 62.25 
Q 35.15625 65.921875 28.609375 65.921875 
Q 23.96875 65.921875 18.8125 64.3125 
Q 13.671875 62.703125 7.8125 59.421875 
L 7.8125 69.390625 
Q 13.765625 71.78125 18.9375 73 
Q 24.125 74.21875 28.421875 74.21875 
Q 39.75 74.21875 46.484375 68.546875 
Q 53.21875 62.890625 53.21875 53.421875 
Q 53.21875 48.921875 51.53125 44.890625 
Q 49.859375 40.875 45.40625 35.40625 
Q 44.1875 33.984375 37.640625 27.21875 
Q 31.109375 20.453125 19.1875 8.296875 
z
" id="DejaVuSans-50"/>
       </defs>
       <use xlink:href="#DejaVuSans-8722"/>
       <use x="83.789062" xlink:href="#DejaVuSans-50"/>
      </g>
     </g>
    </g>
    <g id="xtick_3">
     <g id="line2d_3">
      <g>
       <use style="stroke:#000000;stroke-width:0.8;" x="236.16" xlink:href="#m475966b317" y="307.584"/>
      </g>
     </g>
     <g id="text_3">
      <!-- 0 -->
      <g transform="translate(232.97875 322.182437)scale(0.1 -0.1)">
       <defs>
        <path d="M 31.78125 66.40625 
Q 24.171875 66.40625 20.328125 58.90625 
Q 16.5 51.421875 16.5 36.375 
Q 16.5 21.390625 20.328125 13.890625 
Q 24.171875 6.390625 31.78125 6.390625 
Q 39.453125 6.390625 43.28125 13.890625 
Q 47.125 21.390625 47.125 36.375 
Q 47.125 51.421875 43.28125 58.90625 
Q 39.453125 66.40625 31.78125 66.40625 
z
M 31.78125 74.21875 
Q 44.046875 74.21875 50.515625 64.515625 
Q 56.984375 54.828125 56.984375 36.375 
Q 56.984375 17.96875 50.515625 8.265625 
Q 44.046875 -1.421875 31.78125 -1.421875 
Q 19.53125 -1.421875 13.0625 8.265625 
Q 6.59375 17.96875 6.59375 36.375 
Q 6.59375 54.828125 13.0625 64.515625 
Q 19.53125 74.21875 31.78125 74.21875 
z
" id="DejaVuSans-48"/>
       </defs>
       <use xlink:href="#DejaVuSans-48"/>
      </g>
     </g>
    </g>
    <g id="xtick_4">
     <g id="line2d_4">
      <g>
       <use style="stroke:#000000;stroke-width:0.8;" x="301.090909" xlink:href="#m475966b317" y="307.584"/>
      </g>
     </g>
     <g id="text_4">
      <!-- 2 -->
      <g transform="translate(297.909659 322.182437)scale(0.1 -0.1)">
       <use xlink:href="#DejaVuSans-50"/>
      </g>
     </g>
    </g>
    <g id="xtick_5">
     <g id="line2d_5">
      <g>
       <use style="stroke:#000000;stroke-width:0.8;" x="366.021818" xlink:href="#m475966b317" y="307.584"/>
      </g>
     </g>
     <g id="text_5">
      <!-- 4 -->
      <g transform="translate(362.840568 322.182437)scale(0.1 -0.1)">
       <use xlink:href="#DejaVuSans-52"/>
      </g>
     </g>
    </g>
   </g>
   <g id="matplotlib.axis_2">
    <g id="ytick_1">
     <g id="line2d_6">
      <defs>
       <path d="M 0 0 
L -3.5 0 
" id="m5d38a49efd" style="stroke:#000000;stroke-width:0.8;"/>
      </defs>
      <g>
       <use style="stroke:#000000;stroke-width:0.8;" x="57.6" xlink:href="#m5d38a49efd" y="271.296"/>
      </g>
     </g>
     <g id="text_6">
      <!-- −4 -->
      <g transform="translate(35.857813 275.095219)scale(0.1 -0.1)">
       <use xlink:href="#DejaVuSans-8722"/>
       <use x="83.789062" xlink:href="#DejaVuSans-52"/>
      </g>
     </g>
    </g>
    <g id="ytick_2">
     <g id="line2d_7">
      <g>
       <use style="stroke:#000000;stroke-width:0.8;" x="57.6" xlink:href="#m5d38a49efd" y="222.912"/>
      </g>
     </g>
     <g id="text_7">
      <!-- −2 -->
      <g transform="translate(35.857813 226.711219)scale(0.1 -0.1)">
       <use xlink:href="#DejaVuSans-8722"/>
       <use x="83.789062" xlink:href="#DejaVuSans-50"/>
      </g>
     </g>
    </g>
    <g id="ytick_3">
     <g id="line2d_8">
      <g>
       <use style="stroke:#000000;stroke-width:0.8;" x="57.6" xlink:href="#m5d38a49efd" y="174.528"/>
      </g>
     </g>
     <g id="text_8">
      <!-- 0 -->
      <g transform="translate(44.2375 178.327219)scale(0.1 -0.1)">
       <use xlink:href="#DejaVuSans-48"/>
      </g>
     </g>
    </g>
    <g id="ytick_4">
     <g id="line2d_9">
      <g>
       <use style="stroke:#000000;stroke-width:0.8;" x="57.6" xlink:href="#m5d38a49efd" y="126.144"/>
      </g>
     </g>
     <g id="text_9">
      <!-- 2 -->
      <g transform="translate(44.2375 129.943219)scale(0.1 -0.1)">
       <use xlink:href="#DejaVuSans-50"/>
      </g>
     </g>
    </g>
    <g id="ytick_5">
     <g id="line2d_10">
      <g>
       <use style="stroke:#000000;stroke-width:0.8;" x="57.6" xlink:href="#m5d38a49efd" y="77.76"/>
      </g>
     </g>
     <g id="text_10">
      <!-- 4 -->
      <g transform="translate(44.2375 81.559219)scale(0.1 -0.1)">
       <use xlink:href="#DejaVuSans-52"/>
      </g>
     </g>
    </g>
   </g>
   <g id="patch_3">
    <path d="M 57.6 307.584 
L 57.6 41.472 
" style="fill:none;stroke:#000000;stroke-linecap:square;stroke-linejoin:miter;stroke-width:0.8;"/>
   </g>
   <g id="patch_4">
    <path d="M 414.72 307.584 
L 414.72 41.472 
" style="fill:none;stroke:#000000;stroke-linecap:square;stroke-linejoin:miter;stroke-width:0.8;"/>
   </g>
   <g id="patch_5">
    <path d="M 57.6 307.584 
L 414.72 307.584 
" style="fill:none;stroke:#000000;stroke-linecap:square;stroke-linejoin:miter;stroke-width:0.8;"/>
   </g>
   <g id="patch_6">
    <path d="M 57.6 41.472 
L 414.72 41.472 
" style="fill:none;stroke:#000000;stroke-linecap:square;stroke-linejoin:miter;stroke-width:0.8;"/>
   </g>
  </g>
 </g>
 <defs>
  <clipPath id="p306aa08628">
   <rect height="266.112" width="357.12" x="57.6" y="41.472"/>
  </clipPath>
 </defs>
</svg>
