<?xml version="1.0" encoding="UTF-8" standalone="no"?>
<!-- Created with Inkscape (http://www.inkscape.org/) -->

<svg
   xmlns:dc="http://purl.org/dc/elements/1.1/"
   xmlns:cc="http://creativecommons.org/ns#"
   xmlns:rdf="http://www.w3.org/1999/02/22-rdf-syntax-ns#"
   xmlns:svg="http://www.w3.org/2000/svg"
   xmlns="http://www.w3.org/2000/svg"
   xmlns:sodipodi="http://sodipodi.sourceforge.net/DTD/sodipodi-0.dtd"
   xmlns:inkscape="http://www.inkscape.org/namespaces/inkscape"
   width="85.882416mm"
   height="43.83411mm"
   viewBox="0 0 85.882416 43.83411"
   version="1.1"
   id="svg6035"
   inkscape:version="0.92.5 (2060ec1f9f, 2020-04-08)"
   sodipodi:docname="producto-cruz.svg">
  <defs
     id="defs6029">
    <marker
       inkscape:isstock="true"
       style="overflow:visible"
       id="marker7979"
       refX="0"
       refY="0"
       orient="auto"
       inkscape:stockid="Arrow1Lend">
      <path
         transform="matrix(-0.8,0,0,-0.8,-10,0)"
         style="fill:#000000;fill-opacity:1;fill-rule:evenodd;stroke:#000000;stroke-width:1.00000003pt;stroke-opacity:1"
         d="M 0,0 5,-5 -12.5,0 5,5 Z"
         id="path7977"
         inkscape:connector-curvature="0" />
    </marker>
    <marker
       inkscape:stockid="Arrow1Lend"
       orient="auto"
       refY="0"
       refX="0"
       id="Arrow1Lend"
       style="overflow:visible"
       inkscape:isstock="true"
       inkscape:collect="always">
      <path
         id="path6596"
         d="M 0,0 5,-5 -12.5,0 5,5 Z"
         style="fill:#000000;fill-opacity:1;fill-rule:evenodd;stroke:#000000;stroke-width:1.00000003pt;stroke-opacity:1"
         transform="matrix(-0.8,0,0,-0.8,-10,0)"
         inkscape:connector-curvature="0" />
    </marker>
  </defs>
  <sodipodi:namedview
     id="base"
     pagecolor="#ffffff"
     bordercolor="#666666"
     borderopacity="1.0"
     inkscape:pageopacity="0.0"
     inkscape:pageshadow="2"
     inkscape:zoom="1.4"
     inkscape:cx="151.21514"
     inkscape:cy="51.155075"
     inkscape:document-units="mm"
     inkscape:current-layer="layer1"
     showgrid="false"
     inkscape:window-width="1366"
     inkscape:window-height="743"
     inkscape:window-x="0"
     inkscape:window-y="0"
     inkscape:window-maximized="1" />
  <metadata
     id="metadata6032">
    <rdf:RDF>
      <cc:Work
         rdf:about="">
        <dc:format>image/svg+xml</dc:format>
        <dc:type
           rdf:resource="http://purl.org/dc/dcmitype/StillImage" />
        <dc:title />
      </cc:Work>
    </rdf:RDF>
  </metadata>
  <g
     inkscape:label="Capa 1"
     inkscape:groupmode="layer"
     id="layer1"
     transform="translate(-45.408325,-67.508217)">
    <path
       style="fill:none;stroke:#000000;stroke-width:0.26458332px;stroke-linecap:butt;stroke-linejoin:miter;stroke-opacity:1;marker-end:url(#Arrow1Lend)"
       d="M 45.530505,110.60733 59.335814,77.356065"
       id="path6911"
       inkscape:connector-curvature="0"
       sodipodi:nodetypes="cc" />
    <path
       style="fill:none;stroke:#000000;stroke-width:0.26458332px;stroke-linecap:butt;stroke-linejoin:miter;stroke-opacity:1;marker-end:url(#marker7979)"
       d="m 45.530505,110.60733 71.615205,-9.54307"
       id="path7969"
       inkscape:connector-curvature="0"
       sodipodi:nodetypes="cc" />
    <path
       style="fill:none;stroke:#000000;stroke-width:0.26499999;stroke-linecap:butt;stroke-linejoin:miter;stroke-miterlimit:4;stroke-dasharray:2.1199999,2.1199999;stroke-dashoffset:0;stroke-opacity:1"
       d="M 63.361756,108.20957 59.335814,77.356065 131.16875,67.639315"
       id="path8005"
       inkscape:connector-curvature="0"
       sodipodi:nodetypes="ccc" />
    <path
       style="fill:none;stroke:#000000;stroke-width:0.26458332;stroke-linecap:butt;stroke-linejoin:miter;stroke-opacity:1;stroke-miterlimit:4;stroke-dasharray:2.11666654,2.11666654;stroke-dashoffset:0"
       d="M 117.14571,101.06426 131.16875,67.639315"
       id="path8007"
       inkscape:connector-curvature="0"
       sodipodi:nodetypes="cc" />
    <path
       style="fill:none;stroke:#000000;stroke-width:0.26458332px;stroke-linecap:butt;stroke-linejoin:miter;stroke-opacity:1"
       d="m 60.428139,108.59658 -0.442941,-3.18918 2.952938,-0.32482"
       id="path8721"
       inkscape:connector-curvature="0"
       sodipodi:nodetypes="ccc" />
    <text
       xml:space="preserve"
       style="font-style:normal;font-variant:normal;font-weight:normal;font-stretch:normal;font-size:6.3499999px;line-height:1.25;font-family:'Times New Roman';-inkscape-font-specification:'Times New Roman, Normal';font-variant-ligatures:normal;font-variant-caps:normal;font-variant-numeric:normal;font-feature-settings:normal;text-align:start;letter-spacing:0px;word-spacing:0px;writing-mode:lr-tb;text-anchor:start;fill:#000000;fill-opacity:1;stroke:none;stroke-width:0.26458332"
       x="50.67606"
       y="107.8303"
       id="text8725-6"><tspan
         sodipodi:role="line"
         id="tspan8723-4"
         x="50.67606"
         y="107.8303"
         style="stroke-width:0.26458332">θ </tspan></text>
    <g
       id="g892"
       transform="matrix(2.0976203,0,0,2.0976203,28.826333,13.086964)">
      <g
         word-spacing="normal"
         letter-spacing="normal"
         font-size-adjust="none"
         font-stretch="normal"
         font-weight="normal"
         font-variant="normal"
         font-style="normal"
         stroke-miterlimit="10.433"
         xml:space="preserve"
         transform="matrix(0.06262016,0,0,-0.06262016,-10.958528,64.411812)"
         id="content"
         style="font-style:normal;font-variant:normal;font-weight:normal;font-stretch:normal;letter-spacing:normal;word-spacing:normal;text-anchor:start;fill:none;fill-opacity:1;fill-rule:evenodd;stroke:#000000;stroke-linecap:butt;stroke-linejoin:miter;stroke-miterlimit:10.43299961;stroke-dasharray:none;stroke-dashoffset:0;stroke-opacity:1"><path
           id="path873"
           d="m 463.44,441.78 v 0.16 0.17 l -0.01,0.16 v 0.08 0.08 l -0.01,0.08 -0.01,0.08 -0.01,0.07 -0.01,0.07 -0.02,0.07 -0.01,0.07 -0.02,0.07 -0.02,0.06 -0.03,0.06 -0.03,0.06 -0.03,0.06 -0.03,0.05 -0.04,0.05 -0.04,0.05 -0.05,0.04 -0.05,0.04 -0.03,0.01 -0.03,0.02 -0.03,0.02 -0.03,0.01 -0.03,0.01 -0.03,0.02 -0.03,0.01 -0.04,0.01 -0.04,0.01 -0.03,0.01 h -0.04 l -0.04,0.01 h -0.04 l -0.05,0.01 h -0.04 -0.05 c -1,0 -1,-0.89 -1,-1.78 v -46.24 c 0,-0.9 0,-1.79 1,-1.79 1,0 1,0.89 1,1.79 z"
           inkscape:connector-curvature="0"
           style="fill:#000000;stroke-width:0" /><path
           id="path875"
           d="m 490.43,448.92 -0.07,-0.06 -0.07,-0.07 -0.08,-0.07 -0.08,-0.07 -0.08,-0.08 -0.09,-0.08 -0.09,-0.09 -0.1,-0.08 -0.09,-0.09 -0.1,-0.09 -0.19,-0.19 -0.2,-0.2 -0.19,-0.2 -0.09,-0.11 -0.09,-0.1 -0.09,-0.1 -0.08,-0.1 -0.08,-0.11 -0.08,-0.1 -0.07,-0.1 -0.06,-0.1 -0.06,-0.1 -0.06,-0.1 -0.04,-0.1 -0.04,-0.09 -0.03,-0.09 -0.03,-0.09 -0.01,-0.09 v -0.09 c 0,-0.5 0.5,-1 1,-1 0.45,0 0.7,0.36 0.95,0.66 0.59,0.75 1.73,2.14 3.94,3.24 0.34,0.2 0.84,0.45 0.84,1.04 0,0.5 -0.34,0.75 -0.7,1 -1.1,0.75 -1.64,1.64 -2.05,2.83 -0.09,0.45 -0.3,1.11 -0.98,1.11 -0.71,0 -1,-0.66 -1,-1.05 0,-0.25 0.39,-1.84 1.18,-2.89 h -16.78 c -0.84,0 -1.75,0 -1.75,-1 0,-1 0.91,-1 1.75,-1 z"
           inkscape:connector-curvature="0"
           style="fill:#000000;stroke-width:0" /><path
           id="path877"
           d="m 481.23,440.23 v 0 0.01 0 0.01 0.02 l -0.01,0.01 v 0.02 0.02 0.02 l -0.01,0.02 v 0.02 l -0.01,0.02 -0.01,0.02 -0.01,0.03 -0.01,0.02 -0.01,0.03 -0.01,0.02 -0.02,0.03 -0.02,0.02 -0.02,0.02 -0.02,0.03 -0.01,0.01 -0.01,0.01 -0.02,0.01 -0.01,0.01 -0.02,0.01 -0.01,0.01 -0.02,0.01 -0.01,0.01 -0.02,0.01 -0.02,0.01 h -0.02 l -0.02,0.01 -0.02,0.01 h -0.02 l -0.02,0.01 -0.02,0.01 h -0.03 -0.02 l -0.03,0.01 h -0.02 -0.03 l -0.03,0.01 h -0.02 -0.03 c -1.16,0 -4.79,-0.41 -6.08,-0.5 -0.41,-0.05 -0.96,-0.1 -0.96,-1 0,-0.6 0.46,-0.6 1.21,-0.6 2.39,0 2.48,-0.34 2.48,-0.84 0,-0.36 -0.45,-2.05 -0.7,-3.09 l -4.08,-16.24 c -0.59,-2.5 -0.8,-3.3 -0.8,-5.03 0,-4.73 2.64,-7.83 6.33,-7.83 v 1.1 c -1.7,0 -3.34,1.34 -3.34,5.03 0,0.95 0,1.89 0.8,5.03 l 1.09,4.59 c 0.3,1.1 0.3,1.19 0.75,1.74 2.44,3.23 4.69,3.98 5.98,3.98 1.8,0 3.14,-1.48 3.14,-4.69 0,-2.93 -1.65,-8.65 -2.54,-10.56 -1.64,-3.33 -3.94,-5.12 -5.88,-5.12 v -1.1 c 5.88,0 12,7.42 12,14.6 0,4.53 -2.64,7.96 -6.62,7.96 -2.28,0 -4.33,-1.43 -5.83,-2.98 z"
           inkscape:connector-curvature="0"
           style="fill:#000000;stroke-width:0" /><path
           id="path879"
           d="m 498.72,441.78 v 0.16 0.17 0.16 l -0.01,0.08 v 0.08 l -0.01,0.08 -0.01,0.08 -0.01,0.07 -0.01,0.07 -0.01,0.07 -0.02,0.07 -0.02,0.07 -0.02,0.06 -0.03,0.06 -0.02,0.06 -0.04,0.06 -0.03,0.05 -0.04,0.05 -0.04,0.05 -0.05,0.04 -0.05,0.04 -0.03,0.01 -0.02,0.02 -0.03,0.02 -0.03,0.01 -0.03,0.01 -0.04,0.02 -0.03,0.01 -0.04,0.01 -0.03,0.01 -0.04,0.01 h -0.04 l -0.04,0.01 h -0.04 l -0.05,0.01 h -0.04 -0.05 c -1,0 -1,-0.89 -1,-1.78 v -46.24 c 0,-0.9 0,-1.79 1,-1.79 1,0 1,0.89 1,1.79 z"
           inkscape:connector-curvature="0"
           style="fill:#000000;stroke-width:0" /><path
           id="path881"
           d="m 523.23,415.87 0.12,-0.02 0.12,-0.02 0.14,-0.03 0.16,-0.04 0.17,-0.04 0.18,-0.04 0.19,-0.05 0.2,-0.06 0.2,-0.06 0.21,-0.07 0.22,-0.08 0.22,-0.08 0.22,-0.1 0.22,-0.1 0.22,-0.11 0.22,-0.12 0.21,-0.14 0.22,-0.14 0.2,-0.15 0.2,-0.16 0.19,-0.18 0.18,-0.19 0.17,-0.2 0.16,-0.21 0.14,-0.22 0.06,-0.12 0.07,-0.12 0.06,-0.13 0.05,-0.12 0.05,-0.14 0.04,-0.13 0.04,-0.14 0.04,-0.14 0.03,-0.15 0.03,-0.15 0.02,-0.16 0.01,-0.15 0.01,-0.17 v -0.16 c 0,-2.53 -1.75,-4.53 -5.62,-4.53 -4.19,0 -5.99,2.84 -6.94,7.07 -0.14,0.64 -0.19,0.85 -0.69,0.85 -0.65,0 -0.65,-0.35 -0.65,-1.25 v -6.58 c 0,-0.84 0,-1.19 0.54,-1.19 0.25,0 0.3,0.05 1.25,1 0.1,0.1 0.1,0.19 1,1.14 2.19,-2.09 4.44,-2.14 5.49,-2.14 5.72,0 8.01,3.35 8.01,6.92 0,2.64 -1.5,4.14 -2.09,4.74 -1.64,1.59 -3.6,2 -5.69,2.39 -2.78,0.55 -6.12,1.2 -6.12,4.09 0,1.74 1.29,3.78 5.57,3.78 5.49,0 5.74,-4.48 5.83,-6.03 0.07,-0.45 0.5,-0.45 0.61,-0.45 0.64,0 0.64,0.25 0.64,1.2 v 5.03 c 0,0.85 0,1.19 -0.54,1.19 -0.25,0 -0.35,0 -1,-0.59 -0.14,-0.21 -0.64,-0.64 -0.85,-0.8 -1.89,1.39 -3.94,1.39 -4.69,1.39 -6.07,0 -7.96,-3.33 -7.96,-6.12 0,-1.74 0.79,-3.14 2.14,-4.24 1.59,-1.29 3,-1.59 6.57,-2.28 z"
           inkscape:connector-curvature="0"
           style="fill:#000000;stroke-width:0" /><path
           id="path883"
           d="m 541.37,428.21 -6.97,-0.54 v -1.55 c 3.23,0 3.69,-0.3 3.69,-2.73 v -13.41 c 0,-2.23 -0.55,-2.23 -3.89,-2.23 v -1.55 c 1.59,0.05 4.28,0.16 5.48,0.16 1.75,0 3.48,-0.11 5.19,-0.16 v 1.55 c -3.3,0 -3.5,0.25 -3.5,2.18 z"
           inkscape:connector-curvature="0"
           style="fill:#000000;stroke-width:0" /><path
           id="path885"
           d="m 541.57,436.89 v 0.14 l -0.01,0.15 -0.02,0.14 -0.03,0.14 -0.03,0.13 -0.03,0.13 -0.05,0.13 -0.05,0.12 -0.05,0.12 -0.06,0.12 -0.07,0.11 -0.07,0.1 -0.07,0.1 -0.08,0.1 -0.09,0.1 -0.09,0.08 -0.09,0.09 -0.1,0.08 -0.1,0.07 -0.1,0.07 -0.11,0.07 -0.11,0.06 -0.12,0.05 -0.11,0.05 -0.12,0.04 -0.12,0.04 -0.12,0.03 -0.13,0.03 -0.12,0.02 -0.13,0.01 -0.13,0.01 -0.13,0.01 c -1.55,0 -2.64,-1.35 -2.64,-2.64 0,-1.35 1.09,-2.64 2.64,-2.64 1.39,0 2.64,1.04 2.64,2.64 z"
           inkscape:connector-curvature="0"
           style="fill:#000000;stroke-width:0" /><path
           id="path887"
           d="m 551.84,423.34 v -13.36 c 0,-2.23 -0.55,-2.23 -3.89,-2.23 v -1.55 c 1.75,0.05 4.28,0.16 5.62,0.16 1.3,0 3.89,-0.11 5.58,-0.16 v 1.55 c -3.33,0 -3.88,0 -3.88,2.23 v 9.17 c 0,5.19 3.53,7.97 6.72,7.97 3.14,0 3.69,-2.69 3.69,-5.53 v -11.61 c 0,-2.23 -0.55,-2.23 -3.89,-2.23 v -1.55 c 1.75,0.05 4.3,0.16 5.64,0.16 1.3,0 3.87,-0.11 5.58,-0.16 v 1.55 c -2.6,0 -3.85,0 -3.89,1.5 v 9.51 c 0,4.28 0,5.83 -1.55,7.61 -0.69,0.86 -2.34,1.84 -5.22,1.84 -3.64,0 -5.98,-2.14 -7.37,-5.21 v 5.21 l -7.03,-0.54 v -1.55 c 3.48,0 3.89,-0.34 3.89,-2.78 z"
           inkscape:connector-curvature="0"
           style="fill:#000000;stroke-width:0" /><path
           id="path889"
           d="m 605.02,431.11 v 0.31 l -0.01,0.34 -0.01,0.36 -0.03,0.37 -0.03,0.39 -0.03,0.39 -0.05,0.41 -0.06,0.41 -0.06,0.42 -0.08,0.43 -0.09,0.42 -0.1,0.43 -0.11,0.42 -0.13,0.42 -0.14,0.41 -0.15,0.41 -0.17,0.4 -0.19,0.38 -0.2,0.37 -0.22,0.36 -0.23,0.34 -0.25,0.32 -0.27,0.3 -0.29,0.27 -0.31,0.25 -0.17,0.12 -0.16,0.1 -0.18,0.1 -0.17,0.1 -0.19,0.08 -0.19,0.08 -0.19,0.07 -0.2,0.06 -0.21,0.05 -0.21,0.05 -0.21,0.03 -0.23,0.02 -0.23,0.02 h -0.23 l -0.05,-1.09 c 2.44,0 2.74,-3.19 2.74,-6.03 0,-2.44 -0.39,-4.99 -1.6,-9.92 h -10.4 c 0.84,3.2 1.84,7.18 3.82,10.72 1.36,2.43 3.19,5.23 5.44,5.23 l 0.05,1.09 c -6.92,0 -14.59,-14.04 -14.59,-25.45 0,-4.69 1.43,-10.22 5.98,-10.22 v 1.1 c -1.66,0 -2.7,1.45 -2.7,6.07 0,2.1 0.29,4.99 1.59,9.86 h 10.38 c -0.55,-2.28 -1.6,-6.51 -3.5,-10.11 -1.74,-3.39 -3.63,-5.82 -5.77,-5.82 v -1.1 c 7.02,0 14.59,14.3 14.59,25.46 z"
           inkscape:connector-curvature="0"
           style="fill:#000000;stroke-width:0" /></g>    </g>
    <g
       id="g942"
       transform="matrix(2.1359461,0,0,2.1359461,10.62857,7.8619563)">
      <g
         word-spacing="normal"
         letter-spacing="normal"
         font-size-adjust="none"
         font-stretch="normal"
         font-weight="normal"
         font-variant="normal"
         font-style="normal"
         stroke-miterlimit="10.433"
         xml:space="preserve"
         transform="matrix(0.06262016,0,0,-0.06262016,-10.958528,64.411812)"
         id="g940"
         style="font-style:normal;font-variant:normal;font-weight:normal;font-stretch:normal;letter-spacing:normal;word-spacing:normal;text-anchor:start;fill:none;fill-opacity:1;fill-rule:evenodd;stroke:#000000;stroke-linecap:butt;stroke-linejoin:miter;stroke-miterlimit:10.43299961;stroke-dasharray:none;stroke-dashoffset:0;stroke-opacity:1"><path
           id="path936"
           d="m 476.75,448.92 -0.07,-0.06 -0.07,-0.07 -0.08,-0.07 -0.08,-0.07 -0.08,-0.08 -0.09,-0.08 -0.09,-0.09 -0.1,-0.08 -0.09,-0.09 -0.1,-0.09 -0.19,-0.19 -0.2,-0.2 -0.19,-0.2 -0.09,-0.11 -0.09,-0.1 -0.09,-0.1 -0.08,-0.1 -0.08,-0.11 -0.08,-0.1 -0.07,-0.1 -0.06,-0.1 -0.06,-0.1 -0.06,-0.1 -0.04,-0.1 -0.04,-0.09 -0.03,-0.09 -0.03,-0.09 -0.01,-0.09 v -0.09 c 0,-0.5 0.5,-1 1,-1 0.45,0 0.7,0.36 0.95,0.66 0.59,0.75 1.73,2.14 3.94,3.24 0.34,0.2 0.84,0.45 0.84,1.04 0,0.5 -0.34,0.75 -0.7,1 -1.1,0.75 -1.64,1.64 -2.05,2.83 -0.09,0.45 -0.3,1.11 -0.98,1.11 -0.71,0 -1,-0.66 -1,-1.05 0,-0.25 0.39,-1.84 1.18,-2.89 h -16.78 c -0.84,0 -1.75,0 -1.75,-1 0,-1 0.91,-1 1.75,-1 z"
           inkscape:connector-curvature="0"
           style="fill:#000000;stroke-width:0" /><path
           id="path938"
           d="m 467.43,440.23 v 0 0.01 0 0.01 l -0.01,0.02 v 0.01 0.02 0.02 0.02 l -0.01,0.02 v 0.02 l -0.01,0.02 -0.01,0.02 -0.01,0.03 -0.01,0.02 -0.01,0.03 -0.01,0.02 -0.02,0.03 -0.02,0.02 -0.02,0.02 -0.02,0.03 -0.01,0.01 -0.02,0.01 -0.01,0.01 -0.01,0.01 -0.02,0.01 -0.01,0.01 -0.02,0.01 -0.01,0.01 -0.02,0.01 -0.02,0.01 h -0.02 l -0.02,0.01 -0.02,0.01 h -0.02 l -0.02,0.01 -0.02,0.01 h -0.03 -0.02 l -0.03,0.01 h -0.02 -0.03 l -0.03,0.01 h -0.03 -0.02 c -1.16,0 -4.79,-0.41 -6.08,-0.5 -0.41,-0.05 -0.96,-0.1 -0.96,-1 0,-0.6 0.46,-0.6 1.21,-0.6 2.39,0 2.48,-0.34 2.48,-0.84 0,-0.36 -0.45,-2.05 -0.7,-3.09 l -4.08,-16.24 c -0.59,-2.5 -0.8,-3.3 -0.8,-5.03 0,-4.73 2.64,-7.83 6.33,-7.83 v 1.1 c -1.7,0 -3.34,1.34 -3.34,5.03 0,0.95 0,1.89 0.79,5.03 l 1.1,4.59 c 0.3,1.1 0.3,1.19 0.75,1.74 2.44,3.23 4.69,3.98 5.98,3.98 1.8,0 3.14,-1.48 3.14,-4.69 0,-2.93 -1.65,-8.65 -2.54,-10.56 -1.64,-3.33 -3.94,-5.12 -5.88,-5.12 v -1.1 c 5.88,0 12,7.42 12,14.6 0,4.53 -2.64,7.96 -6.62,7.96 -2.28,0 -4.33,-1.43 -5.83,-2.98 z"
           inkscape:connector-curvature="0"
           style="fill:#000000;stroke-width:0" /></g>    </g>
    <g
       id="g987"
       transform="matrix(1.6971347,0,0,1.6971347,61.540528,43.836463)">
      <g
         word-spacing="normal"
         letter-spacing="normal"
         font-size-adjust="none"
         font-stretch="normal"
         font-weight="normal"
         font-variant="normal"
         font-style="normal"
         stroke-miterlimit="10.433"
         xml:space="preserve"
         transform="matrix(0.06262016,0,0,-0.06262016,-10.958528,64.411812)"
         id="g985"
         style="font-style:normal;font-variant:normal;font-weight:normal;font-stretch:normal;letter-spacing:normal;word-spacing:normal;text-anchor:start;fill:none;fill-opacity:1;fill-rule:evenodd;stroke:#000000;stroke-linecap:butt;stroke-linejoin:miter;stroke-miterlimit:10.43299961;stroke-dasharray:none;stroke-dashoffset:0;stroke-opacity:1"><path
           id="path981"
           d="m 479.15,435.84 -0.07,-0.06 -0.07,-0.07 -0.08,-0.07 -0.08,-0.07 -0.08,-0.08 -0.09,-0.08 -0.09,-0.09 -0.1,-0.08 -0.09,-0.09 -0.1,-0.1 -0.2,-0.19 -0.19,-0.19 -0.19,-0.21 -0.09,-0.1 -0.09,-0.1 -0.09,-0.1 -0.08,-0.11 -0.08,-0.1 -0.08,-0.1 -0.07,-0.1 -0.07,-0.1 -0.05,-0.1 -0.06,-0.1 -0.04,-0.1 -0.04,-0.09 -0.03,-0.09 -0.03,-0.1 -0.01,-0.08 -0.01,-0.09 c 0,-0.5 0.5,-1 1,-1 0.46,0 0.71,0.36 0.96,0.66 0.59,0.75 1.73,2.14 3.94,3.23 0.34,0.21 0.84,0.46 0.84,1.05 0,0.5 -0.34,0.75 -0.7,1 -1.1,0.75 -1.64,1.64 -2.05,2.83 -0.09,0.45 -0.3,1.11 -0.99,1.11 -0.7,0 -1,-0.66 -1,-1.05 0,-0.25 0.4,-1.84 1.19,-2.89 h -16.78 c -0.84,0 -1.75,0 -1.75,-1 0,-1 0.91,-1 1.75,-1 z"
           inkscape:connector-curvature="0"
           style="fill:#000000;stroke-width:0" /><path
           id="path983"
           d="m 474.09,425.03 -0.08,0.17 -0.09,0.17 -0.09,0.16 -0.1,0.16 -0.1,0.16 -0.1,0.16 -0.1,0.15 -0.11,0.14 -0.12,0.15 -0.11,0.13 -0.12,0.14 -0.13,0.13 -0.12,0.12 -0.14,0.12 -0.13,0.11 -0.14,0.11 -0.14,0.11 -0.15,0.09 -0.15,0.1 -0.16,0.08 -0.16,0.08 -0.16,0.08 -0.17,0.06 -0.17,0.07 -0.18,0.05 -0.18,0.05 -0.18,0.04 -0.19,0.03 -0.2,0.03 -0.19,0.02 -0.21,0.01 h -0.2 l 0.04,-1.09 c 3.24,0 3.94,-4.08 3.94,-4.37 0,-0.32 -0.09,-0.61 -0.14,-0.86 l -2.5,-9.77 c -0.25,-0.89 -0.25,-0.98 -1,-1.84 -2.19,-2.74 -4.24,-3.53 -5.63,-3.53 -2.48,0 -3.18,2.73 -3.18,4.68 0,2.49 1.59,8.61 2.73,10.91 1.55,2.94 3.8,4.78 5.78,4.78 l -0.04,1.09 c -5.83,0 -12,-7.31 -12,-14.59 0,-4.69 2.73,-7.97 6.62,-7.97 0.98,0 3.48,0.21 6.47,3.74 0.41,-2.1 2.14,-3.74 4.53,-3.74 1.75,0 2.89,1.14 3.69,2.74 0.84,1.79 1.5,4.84 1.5,4.93 0,0.5 -0.45,0.5 -0.6,0.5 -0.5,0 -0.54,-0.2 -0.7,-0.9 -0.84,-3.24 -1.75,-6.17 -3.78,-6.17 -1.34,0 -1.5,1.29 -1.5,2.29 0,1.1 0.09,1.49 0.64,3.69 0.56,2.09 0.66,2.59 1.11,4.48 l 1.78,6.97 c 0.36,1.39 0.36,1.5 0.36,1.69 0,0.86 -0.61,1.36 -1.45,1.36 -1.19,0 -1.94,-1.11 -2.1,-2.2 z"
           inkscape:connector-curvature="0"
           style="fill:#000000;stroke-width:0" /></g>    </g>
  </g>
</svg>
