<?xml version="1.0" encoding="us-ascii" standalone="no"?><svg xmlns="http://www.w3.org/2000/svg" xmlns:xlink="http://www.w3.org/1999/xlink" contentStyleType="text/css" height="2216px" preserveAspectRatio="none" style="width:2840px;height:2216px;background:#FFFFFF;" version="1.1" viewBox="0 0 2840 2216" width="2840px" zoomAndPan="magnify"><defs/><g><text fill="#000000" font-family="Verdana" font-size="88" font-weight="bold" lengthAdjust="spacing" textLength="1064" x="882" y="141.6836">Inteligencia Artificial</text><rect fill="#FFFFFF" height="145.1875" rx="50" ry="50" style="stroke:#000000;stroke-width:4.0;" width="612" x="20" y="1126.3125"/><text fill="#000000" font-family="Verdana" font-size="56" lengthAdjust="spacing" textLength="156" x="60" y="1218.293">&#193;reas</text><text fill="#000000" font-family="Verdana" font-size="56" lengthAdjust="spacing" textLength="16" x="216" y="1218.293">&#160;</text><text fill="#000000" font-family="Verdana" font-size="56" lengthAdjust="spacing" textLength="72" x="232" y="1218.293">de</text><text fill="#000000" font-family="Verdana" font-size="56" lengthAdjust="spacing" textLength="16" x="304" y="1218.293">&#160;</text><text fill="#000000" font-family="Verdana" font-size="56" lengthAdjust="spacing" textLength="272" x="320" y="1218.293">aplicaci&#243;n</text><rect fill="#FFFFFF" height="145.1875" rx="50" ry="50" style="stroke:#000000;stroke-width:4.0;" width="316" x="792" y="519.1875"/><text fill="#000000" font-family="Verdana" font-size="56" lengthAdjust="spacing" textLength="236" x="832" y="611.168">Industria</text><rect fill="#FFFFFF" height="145.1875" rx="50" ry="50" style="stroke:#000000;stroke-width:4.0;" width="504" x="1268" y="226.4375"/><text fill="#000000" font-family="Verdana" font-size="56" lengthAdjust="spacing" textLength="424" x="1308" y="318.418">Automatizaci&#243;n</text><text fill="#000000" font-family="Verdana" font-size="56" lengthAdjust="spacing" textLength="176" x="1944" y="281.8242">L&#237;neas</text><text fill="#000000" font-family="Verdana" font-size="56" lengthAdjust="spacing" textLength="16" x="2120" y="281.8242">&#160;</text><text fill="#000000" font-family="Verdana" font-size="56" lengthAdjust="spacing" textLength="72" x="2136" y="281.8242">de</text><text fill="#000000" font-family="Verdana" font-size="56" lengthAdjust="spacing" textLength="16" x="2208" y="281.8242">&#160;</text><text fill="#000000" font-family="Verdana" font-size="56" lengthAdjust="spacing" textLength="316" x="2224" y="281.8242">ensamblaje</text><text fill="#000000" font-family="Verdana" font-size="56" lengthAdjust="spacing" textLength="16" x="2540" y="281.8242">&#160;</text><text fill="#000000" font-family="Verdana" font-size="56" lengthAdjust="spacing" textLength="256" x="2556" y="281.8242">rob&#243;ticas</text><path d="M1772,299.0313 L1812,299.0313 C1872,299.0313 1832,262.4375 1892,262.4375 L1932,262.4375 " fill="none" style="stroke:#000000;stroke-width:4.0;"/><text fill="#000000" font-family="Verdana" font-size="56" lengthAdjust="spacing" textLength="424" x="1944" y="355.0117">Automatizaci&#243;n</text><text fill="#000000" font-family="Verdana" font-size="56" lengthAdjust="spacing" textLength="16" x="2368" y="355.0117">&#160;</text><text fill="#000000" font-family="Verdana" font-size="56" lengthAdjust="spacing" textLength="72" x="2384" y="355.0117">de</text><text fill="#000000" font-family="Verdana" font-size="56" lengthAdjust="spacing" textLength="16" x="2456" y="355.0117">&#160;</text><text fill="#000000" font-family="Verdana" font-size="56" lengthAdjust="spacing" textLength="300" x="2472" y="355.0117">almacenes</text><path d="M1772,299.0313 L1812,299.0313 C1872,299.0313 1832,335.625 1892,335.625 L1932,335.625 " fill="none" style="stroke:#000000;stroke-width:4.0;"/><path d="M1108,591.7813 L1148,591.7813 C1208,591.7813 1168,299.0313 1228,299.0313 L1268,299.0313 " fill="none" style="stroke:#000000;stroke-width:4.0;"/><rect fill="#FFFFFF" height="145.1875" rx="50" ry="50" style="stroke:#000000;stroke-width:4.0;" width="420" x="1268" y="502"/><text fill="#000000" font-family="Verdana" font-size="56" lengthAdjust="spacing" textLength="340" x="1308" y="593.9805">Manufactura</text><text fill="#000000" font-family="Verdana" font-size="56" lengthAdjust="spacing" textLength="204" x="1860" y="447.6055">An&#225;lisis</text><text fill="#000000" font-family="Verdana" font-size="56" lengthAdjust="spacing" textLength="16" x="2064" y="447.6055">&#160;</text><text fill="#000000" font-family="Verdana" font-size="56" lengthAdjust="spacing" textLength="72" x="2080" y="447.6055">de</text><text fill="#000000" font-family="Verdana" font-size="56" lengthAdjust="spacing" textLength="16" x="2152" y="447.6055">&#160;</text><text fill="#000000" font-family="Verdana" font-size="56" lengthAdjust="spacing" textLength="256" x="2168" y="447.6055">eficiencia</text><path d="M1688,574.5938 L1728,574.5938 C1788,574.5938 1748,428.2188 1808,428.2188 L1848,428.2188 " fill="none" style="stroke:#000000;stroke-width:4.0;"/><text fill="#000000" font-family="Verdana" font-size="56" lengthAdjust="spacing" textLength="200" x="1860" y="520.793">Control</text><text fill="#000000" font-family="Verdana" font-size="56" lengthAdjust="spacing" textLength="16" x="2060" y="520.793">&#160;</text><text fill="#000000" font-family="Verdana" font-size="56" lengthAdjust="spacing" textLength="308" x="2076" y="520.793">autom&#225;tico</text><path d="M1688,574.5938 L1728,574.5938 C1788,574.5938 1748,501.4063 1808,501.4063 L1848,501.4063 " fill="none" style="stroke:#000000;stroke-width:4.0;"/><text fill="#000000" font-family="Verdana" font-size="56" lengthAdjust="spacing" textLength="312" x="1860" y="593.9805">Producci&#243;n</text><text fill="#000000" font-family="Verdana" font-size="56" lengthAdjust="spacing" textLength="16" x="2172" y="593.9805">&#160;</text><text fill="#000000" font-family="Verdana" font-size="56" lengthAdjust="spacing" textLength="200" x="2188" y="593.9805">basada</text><text fill="#000000" font-family="Verdana" font-size="56" lengthAdjust="spacing" textLength="16" x="2388" y="593.9805">&#160;</text><text fill="#000000" font-family="Verdana" font-size="56" lengthAdjust="spacing" textLength="72" x="2404" y="593.9805">en</text><text fill="#000000" font-family="Verdana" font-size="56" lengthAdjust="spacing" textLength="16" x="2476" y="593.9805">&#160;</text><text fill="#000000" font-family="Verdana" font-size="56" lengthAdjust="spacing" textLength="44" x="2492" y="593.9805">la</text><text fill="#000000" font-family="Verdana" font-size="56" lengthAdjust="spacing" textLength="16" x="2536" y="593.9805">&#160;</text><text fill="#000000" font-family="Verdana" font-size="56" lengthAdjust="spacing" textLength="260" x="2552" y="593.9805">demanda</text><path d="M1688,574.5938 L1728,574.5938 C1788,574.5938 1748,574.5938 1808,574.5938 L1848,574.5938 " fill="none" style="stroke:#000000;stroke-width:4.0;"/><text fill="#000000" font-family="Verdana" font-size="56" lengthAdjust="spacing" textLength="412" x="1860" y="667.168">Mantenimiento</text><path d="M1688,574.5938 L1728,574.5938 C1788,574.5938 1748,647.7813 1808,647.7813 L1848,647.7813 " fill="none" style="stroke:#000000;stroke-width:4.0;"/><text fill="#000000" font-family="Verdana" font-size="56" lengthAdjust="spacing" textLength="244" x="1860" y="740.3555">Rob&#243;tica</text><text fill="#000000" font-family="Verdana" font-size="56" lengthAdjust="spacing" textLength="16" x="2104" y="740.3555">&#160;</text><text fill="#000000" font-family="Verdana" font-size="56" lengthAdjust="spacing" textLength="248" x="2120" y="740.3555">industrial</text><path d="M1688,574.5938 L1728,574.5938 C1788,574.5938 1748,720.9688 1808,720.9688 L1848,720.9688 " fill="none" style="stroke:#000000;stroke-width:4.0;"/><path d="M1108,591.7813 L1148,591.7813 C1208,591.7813 1168,574.5938 1228,574.5938 L1268,574.5938 " fill="none" style="stroke:#000000;stroke-width:4.0;"/><rect fill="#FFFFFF" height="145.1875" rx="50" ry="50" style="stroke:#000000;stroke-width:4.0;" width="384" x="1268" y="794.75"/><text fill="#000000" font-family="Verdana" font-size="56" lengthAdjust="spacing" textLength="304" x="1308" y="886.7305">Transporte</text><text fill="#000000" font-family="Verdana" font-size="56" lengthAdjust="spacing" textLength="332" x="1824" y="813.543">Conducci&#243;n</text><text fill="#000000" font-family="Verdana" font-size="56" lengthAdjust="spacing" textLength="16" x="2156" y="813.543">&#160;</text><text fill="#000000" font-family="Verdana" font-size="56" lengthAdjust="spacing" textLength="280" x="2172" y="813.543">aut&#243;noma</text><path d="M1652,867.3438 L1692,867.3438 C1752,867.3438 1712,794.1563 1772,794.1563 L1812,794.1563 " fill="none" style="stroke:#000000;stroke-width:4.0;"/><text fill="#000000" font-family="Verdana" font-size="56" lengthAdjust="spacing" textLength="204" x="1824" y="886.7305">An&#225;lisis</text><text fill="#000000" font-family="Verdana" font-size="56" lengthAdjust="spacing" textLength="16" x="2028" y="886.7305">&#160;</text><text fill="#000000" font-family="Verdana" font-size="56" lengthAdjust="spacing" textLength="28" x="2044" y="886.7305">y</text><text fill="#000000" font-family="Verdana" font-size="56" lengthAdjust="spacing" textLength="16" x="2072" y="886.7305">&#160;</text><text fill="#000000" font-family="Verdana" font-size="56" lengthAdjust="spacing" textLength="188" x="2088" y="886.7305">dise&#241;o</text><text fill="#000000" font-family="Verdana" font-size="56" lengthAdjust="spacing" textLength="16" x="2276" y="886.7305">&#160;</text><text fill="#000000" font-family="Verdana" font-size="56" lengthAdjust="spacing" textLength="72" x="2292" y="886.7305">de</text><text fill="#000000" font-family="Verdana" font-size="56" lengthAdjust="spacing" textLength="16" x="2364" y="886.7305">&#160;</text><text fill="#000000" font-family="Verdana" font-size="56" lengthAdjust="spacing" textLength="140" x="2380" y="886.7305">rutas</text><path d="M1652,867.3438 L1692,867.3438 C1752,867.3438 1712,867.3438 1772,867.3438 L1812,867.3438 " fill="none" style="stroke:#000000;stroke-width:4.0;"/><text fill="#000000" font-family="Verdana" font-size="56" lengthAdjust="spacing" textLength="204" x="1824" y="959.918">Drones</text><text fill="#000000" font-family="Verdana" font-size="56" lengthAdjust="spacing" textLength="16" x="2028" y="959.918">&#160;</text><text fill="#000000" font-family="Verdana" font-size="56" lengthAdjust="spacing" textLength="316" x="2044" y="959.918">aut&#243;nomos</text><path d="M1652,867.3438 L1692,867.3438 C1752,867.3438 1712,940.5313 1772,940.5313 L1812,940.5313 " fill="none" style="stroke:#000000;stroke-width:4.0;"/><path d="M1108,591.7813 L1148,591.7813 C1208,591.7813 1168,867.3438 1228,867.3438 L1268,867.3438 " fill="none" style="stroke:#000000;stroke-width:4.0;"/><path d="M632,1198.9063 L672,1198.9063 C732,1198.9063 692,591.7813 752,591.7813 L792,591.7813 " fill="none" style="stroke:#000000;stroke-width:4.0;"/><rect fill="#FFFFFF" height="145.1875" rx="50" ry="50" style="stroke:#000000;stroke-width:4.0;" width="276" x="792" y="1014.3125"/><text fill="#000000" font-family="Verdana" font-size="56" lengthAdjust="spacing" textLength="196" x="832" y="1106.293">Dise&#241;o</text><rect fill="#FFFFFF" height="145.1875" rx="50" ry="50" style="stroke:#000000;stroke-width:4.0;" width="448" x="1228" y="1014.3125"/><text fill="#000000" font-family="Verdana" font-size="56" lengthAdjust="spacing" textLength="368" x="1268" y="1106.293">Herramientas</text><text fill="#000000" font-family="Verdana" font-size="56" lengthAdjust="spacing" textLength="196" x="1848" y="1033.1055">Dise&#241;o</text><text fill="#000000" font-family="Verdana" font-size="56" lengthAdjust="spacing" textLength="16" x="2044" y="1033.1055">&#160;</text><text fill="#000000" font-family="Verdana" font-size="56" lengthAdjust="spacing" textLength="212" x="2060" y="1033.1055">asistido</text><text fill="#000000" font-family="Verdana" font-size="56" lengthAdjust="spacing" textLength="16" x="2272" y="1033.1055">&#160;</text><text fill="#000000" font-family="Verdana" font-size="56" lengthAdjust="spacing" textLength="92" x="2288" y="1033.1055">por</text><text fill="#000000" font-family="Verdana" font-size="56" lengthAdjust="spacing" textLength="16" x="2380" y="1033.1055">&#160;</text><text fill="#000000" font-family="Verdana" font-size="56" lengthAdjust="spacing" textLength="48" x="2396" y="1033.1055">IA</text><path d="M1676,1086.9063 L1716,1086.9063 C1776,1086.9063 1736,1013.7188 1796,1013.7188 L1836,1013.7188 " fill="none" style="stroke:#000000;stroke-width:4.0;"/><text fill="#000000" font-family="Verdana" font-size="56" lengthAdjust="spacing" textLength="364" x="1848" y="1106.293">Generadores</text><path d="M1676,1086.9063 L1716,1086.9063 C1776,1086.9063 1736,1086.9063 1796,1086.9063 L1836,1086.9063 " fill="none" style="stroke:#000000;stroke-width:4.0;"/><text fill="#000000" font-family="Verdana" font-size="56" lengthAdjust="spacing" textLength="368" x="1848" y="1179.4805">Herramientas</text><text fill="#000000" font-family="Verdana" font-size="56" lengthAdjust="spacing" textLength="16" x="2216" y="1179.4805">&#160;</text><text fill="#000000" font-family="Verdana" font-size="56" lengthAdjust="spacing" textLength="72" x="2232" y="1179.4805">de</text><text fill="#000000" font-family="Verdana" font-size="56" lengthAdjust="spacing" textLength="16" x="2304" y="1179.4805">&#160;</text><text fill="#000000" font-family="Verdana" font-size="56" lengthAdjust="spacing" textLength="348" x="2320" y="1179.4805">optimizaci&#243;n</text><path d="M1676,1086.9063 L1716,1086.9063 C1776,1086.9063 1736,1160.0938 1796,1160.0938 L1836,1160.0938 " fill="none" style="stroke:#000000;stroke-width:4.0;"/><path d="M1068,1086.9063 L1108,1086.9063 C1168,1086.9063 1128,1086.9063 1188,1086.9063 L1228,1086.9063 " fill="none" style="stroke:#000000;stroke-width:4.0;"/><path d="M632,1198.9063 L672,1198.9063 C732,1198.9063 692,1086.9063 752,1086.9063 L792,1086.9063 " fill="none" style="stroke:#000000;stroke-width:4.0;"/><rect fill="#FFFFFF" height="145.1875" rx="50" ry="50" style="stroke:#000000;stroke-width:4.0;" width="276" x="792" y="1401.875"/><text fill="#000000" font-family="Verdana" font-size="56" lengthAdjust="spacing" textLength="196" x="832" y="1493.8555">M&#233;dica</text><rect fill="#FFFFFF" height="145.1875" rx="50" ry="50" style="stroke:#000000;stroke-width:4.0;" width="380" x="1228" y="1216.6875"/><text fill="#000000" font-family="Verdana" font-size="56" lengthAdjust="spacing" textLength="300" x="1268" y="1308.668">Bioqu&#237;mica</text><text fill="#000000" font-family="Verdana" font-size="56" lengthAdjust="spacing" textLength="196" x="1780" y="1272.0742">Dise&#241;o</text><text fill="#000000" font-family="Verdana" font-size="56" lengthAdjust="spacing" textLength="16" x="1976" y="1272.0742">&#160;</text><text fill="#000000" font-family="Verdana" font-size="56" lengthAdjust="spacing" textLength="72" x="1992" y="1272.0742">de</text><text fill="#000000" font-family="Verdana" font-size="56" lengthAdjust="spacing" textLength="16" x="2064" y="1272.0742">&#160;</text><text fill="#000000" font-family="Verdana" font-size="56" lengthAdjust="spacing" textLength="280" x="2080" y="1272.0742">mol&#233;culas</text><path d="M1608,1289.2813 L1648,1289.2813 C1708,1289.2813 1668,1252.6875 1728,1252.6875 L1768,1252.6875 " fill="none" style="stroke:#000000;stroke-width:4.0;"/><text fill="#000000" font-family="Verdana" font-size="56" lengthAdjust="spacing" textLength="196" x="1780" y="1345.2617">Dise&#241;o</text><text fill="#000000" font-family="Verdana" font-size="56" lengthAdjust="spacing" textLength="16" x="1976" y="1345.2617">&#160;</text><text fill="#000000" font-family="Verdana" font-size="56" lengthAdjust="spacing" textLength="72" x="1992" y="1345.2617">de</text><text fill="#000000" font-family="Verdana" font-size="56" lengthAdjust="spacing" textLength="16" x="2064" y="1345.2617">&#160;</text><text fill="#000000" font-family="Verdana" font-size="56" lengthAdjust="spacing" textLength="232" x="2080" y="1345.2617">ensayos</text><text fill="#000000" font-family="Verdana" font-size="56" lengthAdjust="spacing" textLength="16" x="2312" y="1345.2617">&#160;</text><text fill="#000000" font-family="Verdana" font-size="56" lengthAdjust="spacing" textLength="204" x="2328" y="1345.2617">cl&#237;nicos</text><path d="M1608,1289.2813 L1648,1289.2813 C1708,1289.2813 1668,1325.875 1728,1325.875 L1768,1325.875 " fill="none" style="stroke:#000000;stroke-width:4.0;"/><path d="M1068,1474.4688 L1108,1474.4688 C1168,1474.4688 1128,1289.2813 1188,1289.2813 L1228,1289.2813 " fill="none" style="stroke:#000000;stroke-width:4.0;"/><rect fill="#FFFFFF" height="145.1875" rx="50" ry="50" style="stroke:#000000;stroke-width:4.0;" width="444" x="1228" y="1401.875"/><text fill="#000000" font-family="Verdana" font-size="56" lengthAdjust="spacing" textLength="364" x="1268" y="1493.8555">Tratamientos</text><text fill="#000000" font-family="Verdana" font-size="56" lengthAdjust="spacing" textLength="328" x="1844" y="1420.668">Diagn&#243;stico</text><path d="M1672,1474.4688 L1712,1474.4688 C1772,1474.4688 1732,1401.2813 1792,1401.2813 L1832,1401.2813 " fill="none" style="stroke:#000000;stroke-width:4.0;"/><text fill="#000000" font-family="Verdana" font-size="56" lengthAdjust="spacing" textLength="244" x="1844" y="1493.8555">Medicina</text><text fill="#000000" font-family="Verdana" font-size="56" lengthAdjust="spacing" textLength="16" x="2088" y="1493.8555">&#160;</text><text fill="#000000" font-family="Verdana" font-size="56" lengthAdjust="spacing" textLength="72" x="2104" y="1493.8555">de</text><text fill="#000000" font-family="Verdana" font-size="56" lengthAdjust="spacing" textLength="16" x="2176" y="1493.8555">&#160;</text><text fill="#000000" font-family="Verdana" font-size="56" lengthAdjust="spacing" textLength="252" x="2192" y="1493.8555">precisi&#243;n</text><path d="M1672,1474.4688 L1712,1474.4688 C1772,1474.4688 1732,1474.4688 1792,1474.4688 L1832,1474.4688 " fill="none" style="stroke:#000000;stroke-width:4.0;"/><text fill="#000000" font-family="Verdana" font-size="56" lengthAdjust="spacing" textLength="204" x="1844" y="1567.043">Terapia</text><text fill="#000000" font-family="Verdana" font-size="56" lengthAdjust="spacing" textLength="16" x="2048" y="1567.043">&#160;</text><text fill="#000000" font-family="Verdana" font-size="56" lengthAdjust="spacing" textLength="384" x="2064" y="1567.043">personalizada</text><path d="M1672,1474.4688 L1712,1474.4688 C1772,1474.4688 1732,1547.6563 1792,1547.6563 L1832,1547.6563 " fill="none" style="stroke:#000000;stroke-width:4.0;"/><path d="M1068,1474.4688 L1108,1474.4688 C1168,1474.4688 1128,1474.4688 1188,1474.4688 L1228,1474.4688 " fill="none" style="stroke:#000000;stroke-width:4.0;"/><rect fill="#FFFFFF" height="145.1875" rx="50" ry="50" style="stroke:#000000;stroke-width:4.0;" width="388" x="1228" y="1587.0625"/><text fill="#000000" font-family="Verdana" font-size="56" lengthAdjust="spacing" textLength="308" x="1268" y="1679.043">Prevenci&#243;n</text><text fill="#000000" font-family="Verdana" font-size="56" lengthAdjust="spacing" textLength="248" x="1788" y="1642.4492">Previsi&#243;n</text><text fill="#000000" font-family="Verdana" font-size="56" lengthAdjust="spacing" textLength="16" x="2036" y="1642.4492">&#160;</text><text fill="#000000" font-family="Verdana" font-size="56" lengthAdjust="spacing" textLength="72" x="2052" y="1642.4492">de</text><text fill="#000000" font-family="Verdana" font-size="56" lengthAdjust="spacing" textLength="16" x="2124" y="1642.4492">&#160;</text><text fill="#000000" font-family="Verdana" font-size="56" lengthAdjust="spacing" textLength="404" x="2140" y="1642.4492">enfermedades</text><path d="M1616,1659.6563 L1656,1659.6563 C1716,1659.6563 1676,1623.0625 1736,1623.0625 L1776,1623.0625 " fill="none" style="stroke:#000000;stroke-width:4.0;"/><text fill="#000000" font-family="Verdana" font-size="56" lengthAdjust="spacing" textLength="204" x="1788" y="1715.6367">An&#225;lisis</text><text fill="#000000" font-family="Verdana" font-size="56" lengthAdjust="spacing" textLength="16" x="1992" y="1715.6367">&#160;</text><text fill="#000000" font-family="Verdana" font-size="56" lengthAdjust="spacing" textLength="72" x="2008" y="1715.6367">de</text><text fill="#000000" font-family="Verdana" font-size="56" lengthAdjust="spacing" textLength="16" x="2080" y="1715.6367">&#160;</text><text fill="#000000" font-family="Verdana" font-size="56" lengthAdjust="spacing" textLength="184" x="2096" y="1715.6367">signos</text><text fill="#000000" font-family="Verdana" font-size="56" lengthAdjust="spacing" textLength="16" x="2280" y="1715.6367">&#160;</text><text fill="#000000" font-family="Verdana" font-size="56" lengthAdjust="spacing" textLength="172" x="2296" y="1715.6367">vitales</text><path d="M1616,1659.6563 L1656,1659.6563 C1716,1659.6563 1676,1696.25 1736,1696.25 L1776,1696.25 " fill="none" style="stroke:#000000;stroke-width:4.0;"/><path d="M1068,1474.4688 L1108,1474.4688 C1168,1474.4688 1128,1659.6563 1188,1659.6563 L1228,1659.6563 " fill="none" style="stroke:#000000;stroke-width:4.0;"/><path d="M632,1198.9063 L672,1198.9063 C732,1198.9063 692,1474.4688 752,1474.4688 L792,1474.4688 " fill="none" style="stroke:#000000;stroke-width:4.0;"/><rect fill="#FFFFFF" height="145.1875" rx="50" ry="50" style="stroke:#000000;stroke-width:4.0;" width="352" x="792" y="1899.2188"/><text fill="#000000" font-family="Verdana" font-size="56" lengthAdjust="spacing" textLength="272" x="832" y="1991.1992">Marketing</text><rect fill="#FFFFFF" height="145.1875" rx="50" ry="50" style="stroke:#000000;stroke-width:4.0;" width="532" x="1304" y="1789.4375"/><text fill="#000000" font-family="Verdana" font-size="56" lengthAdjust="spacing" textLength="452" x="1344" y="1881.418">Recomendaci&#243;n</text><text fill="#000000" font-family="Verdana" font-size="56" lengthAdjust="spacing" textLength="252" x="2008" y="1808.2305">Sistemas</text><text fill="#000000" font-family="Verdana" font-size="56" lengthAdjust="spacing" textLength="16" x="2260" y="1808.2305">&#160;</text><text fill="#000000" font-family="Verdana" font-size="56" lengthAdjust="spacing" textLength="72" x="2276" y="1808.2305">de</text><text fill="#000000" font-family="Verdana" font-size="56" lengthAdjust="spacing" textLength="16" x="2348" y="1808.2305">&#160;</text><text fill="#000000" font-family="Verdana" font-size="56" lengthAdjust="spacing" textLength="432" x="2364" y="1808.2305">recomendaci&#243;n</text><path d="M1836,1862.0313 L1876,1862.0313 C1936,1862.0313 1896,1788.8438 1956,1788.8438 L1996,1788.8438 " fill="none" style="stroke:#000000;stroke-width:4.0;"/><text fill="#000000" font-family="Verdana" font-size="56" lengthAdjust="spacing" textLength="432" x="2008" y="1881.418">Personalizaci&#243;n</text><text fill="#000000" font-family="Verdana" font-size="56" lengthAdjust="spacing" textLength="16" x="2440" y="1881.418">&#160;</text><text fill="#000000" font-family="Verdana" font-size="56" lengthAdjust="spacing" textLength="72" x="2456" y="1881.418">de</text><text fill="#000000" font-family="Verdana" font-size="56" lengthAdjust="spacing" textLength="16" x="2528" y="1881.418">&#160;</text><text fill="#000000" font-family="Verdana" font-size="56" lengthAdjust="spacing" textLength="192" x="2544" y="1881.418">ofertas</text><path d="M1836,1862.0313 L1876,1862.0313 C1936,1862.0313 1896,1862.0313 1956,1862.0313 L1996,1862.0313 " fill="none" style="stroke:#000000;stroke-width:4.0;"/><text fill="#000000" font-family="Verdana" font-size="56" lengthAdjust="spacing" textLength="164" x="2008" y="1954.6055">Filtros</text><text fill="#000000" font-family="Verdana" font-size="56" lengthAdjust="spacing" textLength="16" x="2172" y="1954.6055">&#160;</text><text fill="#000000" font-family="Verdana" font-size="56" lengthAdjust="spacing" textLength="72" x="2188" y="1954.6055">de</text><text fill="#000000" font-family="Verdana" font-size="56" lengthAdjust="spacing" textLength="16" x="2260" y="1954.6055">&#160;</text><text fill="#000000" font-family="Verdana" font-size="56" lengthAdjust="spacing" textLength="280" x="2276" y="1954.6055">contenido</text><path d="M1836,1862.0313 L1876,1862.0313 C1936,1862.0313 1896,1935.2188 1956,1935.2188 L1996,1935.2188 " fill="none" style="stroke:#000000;stroke-width:4.0;"/><path d="M1144,1971.8125 L1184,1971.8125 C1244,1971.8125 1204,1862.0313 1264,1862.0313 L1304,1862.0313 " fill="none" style="stroke:#000000;stroke-width:4.0;"/><rect fill="#FFFFFF" height="145.1875" rx="50" ry="50" style="stroke:#000000;stroke-width:4.0;" width="360" x="1304" y="2009"/><text fill="#000000" font-family="Verdana" font-size="56" lengthAdjust="spacing" textLength="280" x="1344" y="2100.9805">Publicidad</text><text fill="#000000" font-family="Verdana" font-size="56" lengthAdjust="spacing" textLength="204" x="1836" y="2027.793">An&#225;lisis</text><text fill="#000000" font-family="Verdana" font-size="56" lengthAdjust="spacing" textLength="16" x="2040" y="2027.793">&#160;</text><text fill="#000000" font-family="Verdana" font-size="56" lengthAdjust="spacing" textLength="72" x="2056" y="2027.793">de</text><text fill="#000000" font-family="Verdana" font-size="56" lengthAdjust="spacing" textLength="16" x="2128" y="2027.793">&#160;</text><text fill="#000000" font-family="Verdana" font-size="56" lengthAdjust="spacing" textLength="328" x="2144" y="2027.793">sentimiento</text><path d="M1664,2081.5938 L1704,2081.5938 C1764,2081.5938 1724,2008.4063 1784,2008.4063 L1824,2008.4063 " fill="none" style="stroke:#000000;stroke-width:4.0;"/><text fill="#000000" font-family="Verdana" font-size="56" lengthAdjust="spacing" textLength="280" x="1836" y="2100.9805">Publicidad</text><text fill="#000000" font-family="Verdana" font-size="56" lengthAdjust="spacing" textLength="16" x="2116" y="2100.9805">&#160;</text><text fill="#000000" font-family="Verdana" font-size="56" lengthAdjust="spacing" textLength="360" x="2132" y="2100.9805">program&#225;tica</text><path d="M1664,2081.5938 L1704,2081.5938 C1764,2081.5938 1724,2081.5938 1784,2081.5938 L1824,2081.5938 " fill="none" style="stroke:#000000;stroke-width:4.0;"/><text fill="#000000" font-family="Verdana" font-size="56" lengthAdjust="spacing" textLength="432" x="1836" y="2174.168">Personalizaci&#243;n</text><text fill="#000000" font-family="Verdana" font-size="56" lengthAdjust="spacing" textLength="16" x="2268" y="2174.168">&#160;</text><text fill="#000000" font-family="Verdana" font-size="56" lengthAdjust="spacing" textLength="72" x="2284" y="2174.168">de</text><text fill="#000000" font-family="Verdana" font-size="56" lengthAdjust="spacing" textLength="16" x="2356" y="2174.168">&#160;</text><text fill="#000000" font-family="Verdana" font-size="56" lengthAdjust="spacing" textLength="252" x="2372" y="2174.168">anuncios</text><path d="M1664,2081.5938 L1704,2081.5938 C1764,2081.5938 1724,2154.7813 1784,2154.7813 L1824,2154.7813 " fill="none" style="stroke:#000000;stroke-width:4.0;"/><path d="M1144,1971.8125 L1184,1971.8125 C1244,1971.8125 1204,2081.5938 1264,2081.5938 L1304,2081.5938 " fill="none" style="stroke:#000000;stroke-width:4.0;"/><path d="M632,1198.9063 L672,1198.9063 C732,1198.9063 692,1971.8125 752,1971.8125 L792,1971.8125 " fill="none" style="stroke:#000000;stroke-width:4.0;"/><!--SRC=[xLTDSnCv4BtFhz2UW5G1Je1TDaLjaJY49DZWYaFOsrPd9Dl26ccGD06pbSF-58uSSjZYkhVvO_iqNnx79a38CQbox96wNt-zResUEa_M9rBpXDBe5pyHYM2f8gaZ5vCIx57afbAdP2bXiIBdo7ihJp8lP6oqany5wqIHbnwo-zeB9ST2nvBOblLo9F5BHT4Qo_-nWXpZWb6gP4onpBzeRAn1YMSEa1IUrjXMvar2NdwiHB2szXVhvUUwqXVQKNAYwArWrfpaNppGN2LsGRamfnAAXHQkXE-JpaOK-ynIhQFpJqewMO87Zml_gzskqTuQnIWWvvzWp5Gx0sju5fTsJiWH9xZ6504c8Srh01ZqGii4gDwmQl6mTfp9EdfL-dTaIRlKM2_c3ZHcu0I-4E6IwpF6fHFvloO4OJFVP6J76iJUQ1ga8IHzfvGkJEu9Y-86_-PQ5HW1sqjk63nY-rlLxdEaqn8tLjJoROZWWKaz8gvBM5Zivvyv0YwZt9RcNPQV9s5XqIAK4wFopt6cbhofYZyp3am48L0BrsJDb_RDN8d6El_YMXNh2tWWTQWGIws8aRavmuuGKWhQfi8weqd1UrvvEx3YD71YBXnMIktIgP6mYU34cuGiaCh9iORFfzAZeK81YdoGdGelzRYqSIXYamZGfcrcYEo3J0M8NIKmc3lR4Dx0cNabTwK2Vmi4j6jW8ZTLLDa96b72wvK-8vSLQMjRZJoIPyQeTz4ET8ahw3MahU1STFzMn6wnhms2iDKU1SLpqQscxjPowPA6RGHMzMop-SssBLsfwLhgWKx2aGMeAcWuoZzPZ1L4LaatnIoVc_wkzwL2yMtrT2ovC6ypCMxqUr3D_ylFNKi7FU95h8qou_oScWnXkafXovNxKVGKbAYdT_HqOPXNVq-SdodnHyGmBerdV-C7OziKJyVMP9ftOS2oznE9YHDsTf6ySWqpDfusQoy91yEni9mq5OjxCxGA79_Mqba9W2Ln4I2i7KraFCKiScozM4FEnbBZV67i31zkuWpyhXsC2IF4wEhf8aAdM3qh_eyGbR3V8JWHQD3l4ImFirek13yCnzp6nZSqmqSRNglswODCikIDv7x27dGwXSIJ-rKvMiVg5eZrlWTkoTIaxTJDHLRNQxw_8qQKARzKg2M9li4eId4YyaQsQp8BIhLaUtA4SroBeSTS5UCPed96ITuI6O1ewBmKfzk0E0T_sNgdjJyKxpAqfGXG8L_RnYBvguCRJd2Ol0yG8rAk7TPh9xQ5fs586VCM36kdBVOICtLMfFjhXDuckqZ6PKTMSNufaMVjOWGpP4l35tKN1JyKCdM67YtiTgMDbU3T2PxYciANk5BNYR53uZ9pxFT5kF1oTdakVZxqmiXM_GRuBO-_YZ14kC9uJ92hGEpEE_u7DVVc8-17DSEqGqzC2-NMo6iBxUE87G2Cnc91h6BUoh8iwLjvIlvdzCEnuGM_Ea9nq5z9_QMv6YbUdRo5poLvbqXwjZ1svjcz1ZeFVPtgx- -PHVsQnrlNWjAz5fHdruAoVoqeBty21TE_IqwKO4S_DYnkxgutTzURk-lDtVLQxgwBjwo1GbkyxlVOATJ27MNztaPduy6zzSxjDpXs3pB5rZTOv_7ceuURdTzOVtZ4mlwTwFRpGOyvlCN58b2-74K0k1CTq2cnmoouBJRPgrJeWvqNzG9xfaybMY7SZgA3u_vSuDU7TxUbnxksXIlik1zLB_dGY4ruuznahuzsxpwEUgJ76SxDJOOQuZqISs6soVf__Wy0]--></g></svg>